<svg width="6" height="7" viewBox="0 0 6 7" fill="none" xmlns="http://www.w3.org/2000/svg">
<path d="M5.50332 5.09854C5.48457 5.13726 5.45929 5.17246 5.42861 5.2026C5.4286 5.2026 5.4286 5.2026 5.4286 5.2026L5.42857 5.20263L5.42844 5.20276L5.42787 5.20332L5.42554 5.20561L5.41647 5.21455L5.38326 5.24735C5.35538 5.27493 5.31759 5.31248 5.27772 5.35248C5.19218 5.43829 5.11444 5.5182 5.09076 5.54602C5.08688 5.55057 5.0829 5.55503 5.07881 5.55939C4.88917 5.76177 4.65234 5.85965 4.37469 5.85965L4.37201 5.85965C4.35643 5.85966 4.32712 5.85967 4.29713 5.85768L4.32202 5.4835M5.50332 5.09854L2.1547 1.02673C2.08561 0.955531 2.01529 0.884008 1.94002 0.813578C1.87934 0.753228 1.73008 0.625 1.50894 0.625C1.32433 0.625 1.17761 0.714632 1.07853 0.807459L1.0784 0.807323L1.07002 0.815688L0.679602 1.20531C0.521785 1.3628 0.431852 1.55638 0.412863 1.77809L0.412861 1.77809L0.412754 1.7794C0.389598 2.06133 0.44512 2.34029 0.563319 2.65626C0.753836 3.16978 1.03919 3.64007 1.45071 4.13505L1.45071 4.13505L1.45185 4.13641C1.95809 4.73948 2.56915 5.21721 3.26585 5.5538L3.26745 5.55457C3.51281 5.67167 3.88293 5.83123 4.29813 5.85774L4.32202 5.4835M5.50332 5.09854L5.16583 4.93506M5.50332 5.09854L5.16583 4.93506M4.32202 5.4835C4.3392 5.48465 4.35752 5.48465 4.37469 5.48465C4.5533 5.48465 4.68954 5.42637 4.80518 5.30298L3.42898 5.21614C3.66598 5.32926 3.98198 5.46179 4.32202 5.4835ZM5.16583 4.93506C5.50332 5.09854 5.50337 5.09845 5.50342 5.09835L5.50351 5.09814L5.50372 5.09772L5.50416 5.0968L5.50518 5.09466L5.50771 5.08923L5.51456 5.07391C5.5198 5.06184 5.52645 5.04579 5.53361 5.02658C5.54753 4.98924 5.56538 4.93476 5.57768 4.87107C5.59662 4.773 5.62996 4.51089 5.42916 4.31158C5.42887 4.31129 5.42858 4.311 5.42828 4.31071L4.8013 3.685C4.73428 3.61392 4.58544 3.48718 4.36667 3.48718C4.13915 3.48718 3.9847 3.62674 3.9289 3.68243L3.76935 3.84165C3.75435 3.83396 3.74032 3.82697 3.72802 3.82083C3.72608 3.81987 3.72419 3.81892 3.72234 3.818C3.67431 3.79404 3.643 3.77808 3.61462 3.76012L3.61422 3.75987C3.28604 3.55275 2.98255 3.2789 2.6883 2.91715C2.68702 2.91558 2.68574 2.91403 2.68443 2.91248C2.55699 2.75022 2.47229 2.61828 2.41096 2.49181C2.41929 2.48397 2.42574 2.47739 2.42943 2.47362C2.42988 2.47315 2.4303 2.47273 2.43067 2.47235L2.47295 2.42907C2.49697 2.4058 2.52268 2.37986 2.54471 2.35762C2.55467 2.34757 2.56388 2.33827 2.57185 2.33033C2.66814 2.23423 2.77298 2.08597 2.77298 1.88779C2.77298 1.68961 2.66814 1.54135 2.57185 1.44525L2.26129 1.13533C2.24281 1.11632 2.22449 1.09776 2.20735 1.08039L2.20654 1.07956C2.18822 1.06099 2.17126 1.0438 2.15476 1.0268L5.16583 4.93506ZM2.32384 2.56707C2.3232 2.56759 2.3253 2.56587 2.32725 2.56424L2.32519 2.56595L2.32384 2.56707Z" stroke="white" stroke-width="0.75" stroke-linecap="round" stroke-linejoin="round"/>
</svg>
