<svg width="8" height="8" viewBox="0 0 8 8" fill="none" xmlns="http://www.w3.org/2000/svg">
<path d="M5.5485 2.63119C5.5485 3.53207 4.97638 4.18989 4.27064 4.18989C3.5649 4.18989 2.99278 3.53207 2.99278 2.63119C2.99278 1.73031 3.5649 1 4.27064 1C4.97638 1 5.5485 1.73031 5.5485 2.63119Z" stroke="white" stroke-width="0.75" stroke-linejoin="round"/>
<path d="M1.66673 5.49484C1.75833 5.3278 1.92645 5.22508 2.10825 5.22508H6.29175C6.47355 5.22508 6.64166 5.3278 6.73327 5.49484L7.3296 6.5823C7.52838 6.94478 7.28258 7.4 6.88809 7.4H1.51191C1.11742 7.4 0.871623 6.94478 1.0704 6.5823L1.66673 5.49484Z" stroke="white" stroke-width="0.75" stroke-linejoin="round"/>
</svg>
