<svg width="23" height="28" viewBox="0 0 23 28" fill="none" xmlns="http://www.w3.org/2000/svg">
<g clip-path="url(#clip0_1_405)">
<path d="M4.98737 16.7188C7.23971 16.1449 8.99988 14.5156 10.6565 13.2226C10.77 13.1224 10.8806 13.0208 10.987 12.9206C10.8934 12.8474 10.8026 12.7697 10.7047 12.7024C9.45517 11.828 8.20419 10.955 6.95604 10.0791C6.7986 9.96847 6.60712 9.85337 6.64826 9.61869C6.68939 9.38402 6.90356 9.32273 7.09362 9.27041C7.47232 9.16727 7.83541 9.28237 8.19567 9.3885C9.16015 9.674 10.126 9.95801 11.0905 10.2465C11.6947 10.4274 12.3004 10.6067 12.9018 10.7996C13.1883 10.8922 13.4209 10.8235 13.6407 10.6217C14.0024 10.2883 14.3641 9.95352 14.7414 9.63813C15.1115 9.32721 15.5214 9.08656 16.0023 9.02228C16.6504 8.93559 17.1157 9.54097 16.8987 10.1897C16.7582 10.6097 16.5044 10.949 16.1781 11.2181C15.7342 11.5843 15.2747 11.9296 14.8094 12.2674C14.5726 12.4393 14.479 12.6591 14.4875 12.9505C14.5343 14.5679 14.5797 16.1867 14.6222 17.804C14.6321 18.1718 14.6477 18.5425 14.6279 18.9087C14.6109 19.2091 14.4364 19.4274 14.1825 19.5664C13.9925 19.671 13.8506 19.6202 13.7627 19.4139C13.7244 19.3227 13.6989 19.2256 13.6677 19.1314C13.1897 17.6919 12.7103 16.2525 12.2309 14.8145C12.1926 14.7009 12.1472 14.5858 12.0976 14.4602C10.9785 15.3078 9.84947 16.1449 8.77436 17.0552C7.81698 17.8668 6.8837 18.2898 6.32062 19.4737C5.9788 20.1942 5.81569 21.2883 6.67946 22.5694C8.18007 24.4558 9.01548 25.3063 11.1402 26.973C11.2395 27.0507 11.3288 27.0462 11.4394 26.9774C13.3202 25.7966 15.0151 24.3736 16.4902 22.668C18.7425 20.0626 20.2984 17.0447 21.2445 13.671C21.7366 11.9132 22.0487 10.1194 22.1976 8.29134C22.2983 7.05517 22.3167 5.8175 22.2657 4.57834C22.2572 4.3885 22.2331 4.25547 21.9976 4.24949C20.9778 4.22109 19.9694 4.07759 18.9709 3.86085C16.7809 3.38402 14.7314 2.53947 12.862 1.23753C12.3217 0.860846 11.8082 0.440816 11.2707 0.03125C11.0905 0.183716 10.8976 0.35412 10.6962 0.515555C10.4906 0.681474 10.2821 0.845899 10.0679 0.99986C7.2156 3.05068 4.04559 4.07609 0.611767 4.24949C0.408943 4.25995 0.326679 4.32123 0.318168 4.54993C0.251506 6.32422 0.319587 8.09104 0.557869 9.85188C0.858559 12.0716 2.53647 17.3452 4.98737 16.7203V16.7188Z" fill="url(#paint0_linear_1_405)"/>
</g>
<defs>
<linearGradient id="paint0_linear_1_405" x1="0.294057" y1="13.5305" x2="37.7755" y2="13.5297" gradientUnits="userSpaceOnUse">
<stop stop-color="#11B3D8"/>
<stop offset="1" stop-color="#2F52E0"/>
</linearGradient>
<clipPath id="clip0_1_405">
<rect width="22" height="27" fill="white" transform="translate(0.294067 0.0294189)"/>
</clipPath>
</defs>
</svg>
