<svg width="35" height="36" viewBox="0 0 35 36" fill="none" xmlns="http://www.w3.org/2000/svg">
<g clip-path="url(#clip0_1_495)">
<path d="M31.0456 19.8462H32.9361C32.9635 19.8143 32.9954 19.7961 32.9954 19.7825C33.0319 17.7154 33.0913 15.6439 32.516 13.6315C30.7945 7.6216 26.8995 3.74706 20.7899 2.37663C13.2192 0.678388 5.81733 4.78513 3.02738 12.0015C2.40181 13.6224 2.08674 15.3069 2.04564 17.0416C2.02281 17.9613 2.04564 18.8764 2.04564 19.8371H4.00911V29.7079C1.86299 30.0903 0.0958714 28.5605 0.0684742 26.7075C0.0182459 23.3338 -0.0502473 19.9509 0.0821728 16.5818C0.260255 12.0562 2.06391 8.18161 5.30135 4.99912C7.88583 2.44492 10.9954 0.837741 14.5845 0.254966C19.6575 -0.569114 24.274 0.582777 28.3196 3.75161C31.9771 6.61541 34.1233 10.3989 34.8265 14.9837C34.9361 15.703 34.9817 16.4406 34.9863 17.1691C35.0045 20.2605 34.9954 23.3565 34.9954 26.448C34.9954 28.342 33.5708 29.7534 31.6758 29.7579C31.4749 29.7579 31.274 29.7579 31.0502 29.7579V19.8462H31.0456Z" fill="#2F52E0"/>
<path d="M15.105 10.4945C15.105 9.42911 15.105 8.40015 15.105 7.37574C15.105 6.61996 15.484 6.24207 16.2329 6.24207C17.0867 6.24207 17.9361 6.24207 18.7899 6.24207C19.5616 6.24207 19.9315 6.61541 19.9315 7.39851C19.9315 8.41381 19.9315 9.42456 19.9315 10.4945C20.073 10.4945 20.1963 10.4945 20.3242 10.4945C21.2603 10.4945 22.1963 10.4945 23.1278 10.4945C23.7899 10.4945 24.1918 10.8952 24.1918 11.5508C24.1918 12.4477 24.1918 13.3446 24.1918 14.2416C24.1918 14.9154 23.7899 15.3069 23.105 15.3069C22.0639 15.3069 21.0228 15.3069 19.9315 15.3069C19.9315 15.4481 19.9315 15.571 19.9315 15.6985C19.9315 16.6318 19.9315 17.5652 19.9315 18.494C19.9315 19.1542 19.5297 19.5548 18.8721 19.5548C17.9726 19.5548 17.073 19.5548 16.1735 19.5548C15.4977 19.5548 15.105 19.1542 15.105 18.4712C15.105 17.4332 15.105 16.3951 15.105 15.3069C14.9634 15.3069 14.8356 15.3069 14.7123 15.3069C13.7762 15.3069 12.8402 15.3069 11.9087 15.3069C11.2466 15.3069 10.8493 14.9063 10.8447 14.2507C10.8447 13.3537 10.8447 12.4568 10.8447 11.5599C10.8447 10.8815 11.242 10.4945 11.9315 10.4945C12.9726 10.4945 14.0137 10.4945 15.105 10.4945Z" fill="#2F52E0"/>
<path d="M10.5571 24.7998C10.5571 26.4389 10.5571 28.0825 10.5571 29.7215C10.5571 30.9189 9.70774 31.8933 8.57075 32.0162C7.36527 32.1482 6.31961 31.4015 6.05477 30.2132C6.01824 30.0539 6.01367 29.8854 6.01367 29.7215C6.01367 26.4388 6.01367 23.1607 6.01367 19.8781C6.01367 18.5668 6.99997 17.5743 8.28308 17.5743C9.57075 17.5743 10.5525 18.5623 10.5571 19.8735C10.5571 21.5126 10.5571 23.1562 10.5571 24.7952V24.7998Z" fill="#2F52E0"/>
<path d="M24.484 24.7952C24.484 23.1562 24.484 21.5126 24.484 19.8735C24.484 18.5668 25.4749 17.5789 26.7625 17.5789C28.0457 17.5789 29.0274 18.5714 29.0274 19.8872C29.0274 23.1698 29.0274 26.448 29.0274 29.7306C29.0274 31.0373 28.0365 32.0298 26.7489 32.0253C25.4657 32.0253 24.4886 31.0282 24.484 29.717C24.484 28.0779 24.484 26.4343 24.484 24.7952Z" fill="#2F52E0"/>
<path d="M31.8859 31.7976C32.548 31.6474 33.1873 31.5063 33.8265 31.3651C34.1599 33.6507 32.8265 35.5402 30.5799 35.9499C30.4293 35.9772 30.274 35.9863 30.1233 35.9863C28.0503 35.9863 25.9818 35.9863 23.9087 35.9863C23.8265 35.9863 23.7489 35.9863 23.6484 35.9863V34.0058H24.0183C25.8996 34.0058 27.7809 34.0058 29.6621 34.0058C31.1325 34.0058 31.8083 33.3547 31.8676 31.8978C31.8676 31.8523 31.8813 31.8068 31.8813 31.7931L31.8859 31.7976Z" fill="#2F52E0"/>
<path d="M21.6393 35.9863C20.2968 35.9863 18.9954 36.0273 17.6986 35.9727C16.6758 35.9317 15.9224 34.9665 15.9589 33.8829C15.9909 32.904 16.8585 32.0481 17.8448 32.0298C18.4612 32.0162 19.0731 32.0207 19.6895 32.0298C20.758 32.039 21.6256 32.8995 21.6347 33.9648C21.6438 34.625 21.6347 35.2852 21.6347 35.9863H21.6393Z" fill="#2F52E0"/>
</g>
<defs>
<clipPath id="clip0_1_495">
<rect width="35" height="36" fill="white"/>
</clipPath>
</defs>
</svg>
