<svg width="18" height="20" viewBox="0 0 18 20" fill="none" xmlns="http://www.w3.org/2000/svg">
<g clip-path="url(#clip0_15_616)">
<path d="M15.9663 10.9744H16.9386C16.9526 10.9576 16.9691 10.948 16.9691 10.9407C16.9879 9.84982 17.0184 8.75648 16.7225 7.69438C15.8372 4.52251 13.8341 2.47761 10.692 1.75433C6.79844 0.858037 2.99179 3.02548 1.55695 6.83413C1.23523 7.68958 1.07319 8.57866 1.05206 9.49418C1.04032 9.97958 1.05206 10.4626 1.05206 10.9696H2.06184V16.1791C0.958126 16.381 0.0493201 15.5736 0.0352301 14.5956C0.00939841 12.815 -0.0258266 11.0297 0.0422751 9.25149C0.13386 6.86297 1.06145 4.81807 2.72642 3.13842C4.05558 1.79038 5.6548 0.94214 7.50059 0.634564C10.1096 0.199633 12.4838 0.807575 14.5644 2.48002C16.4454 3.99146 17.5491 5.9883 17.9108 8.40806C17.9671 8.78772 17.9906 9.17699 17.993 9.56146C18.0024 11.1931 17.9977 12.8271 17.9977 14.4586C17.9977 15.4583 17.265 16.2032 16.2904 16.2056C16.1871 16.2056 16.0838 16.2056 15.9687 16.2056V10.9744H15.9663Z" fill="#6AE2FF"/>
<path d="M5.42937 13.5888C5.42937 14.4538 5.42937 15.3213 5.42937 16.1864C5.42937 16.8183 4.99258 17.3326 4.40784 17.3974C3.78788 17.4671 3.25011 17.073 3.11391 16.4459C3.09512 16.3618 3.09277 16.2729 3.09277 16.1864C3.09277 14.4538 3.09277 12.7237 3.09277 10.9912C3.09277 10.2992 3.60001 9.77533 4.2599 9.77533C4.92213 9.77533 5.42702 10.2968 5.42937 10.9888C5.42937 11.8539 5.42937 12.7213 5.42937 13.5864V13.5888Z" fill="#6AE2FF"/>
<path d="M12.5918 13.5864C12.5918 12.7213 12.5918 11.8539 12.5918 10.9888C12.5918 10.2992 13.1014 9.77773 13.7636 9.77773C14.4235 9.77773 14.9284 10.3016 14.9284 10.996C14.9284 12.7285 14.9284 14.4586 14.9284 16.1912C14.9284 16.8808 14.4188 17.4046 13.7566 17.4022C13.0967 17.4022 12.5941 16.876 12.5918 16.1839C12.5918 15.3189 12.5918 14.4514 12.5918 13.5864Z" fill="#6AE2FF"/>
<path d="M16.3984 17.2821C16.739 17.2028 17.0677 17.1283 17.3965 17.0538C17.5679 18.2601 16.8822 19.2573 15.7268 19.4736C15.6493 19.488 15.5695 19.4928 15.492 19.4928C14.4258 19.4928 13.362 19.4928 12.2959 19.4928C12.2536 19.4928 12.2137 19.4928 12.162 19.4928V18.4475H12.3523C13.3198 18.4475 14.2873 18.4475 15.2548 18.4475C16.011 18.4475 16.3585 18.1039 16.3891 17.335C16.3891 17.3109 16.3961 17.2869 16.3961 17.2797L16.3984 17.2821Z" fill="#6AE2FF"/>
<path d="M11.1288 19.4928C10.4384 19.4928 9.76909 19.5144 9.10216 19.4856C8.57613 19.464 8.18866 18.9545 8.20744 18.3826C8.22388 17.866 8.67006 17.4143 9.17731 17.4046C9.49433 17.3974 9.80901 17.3998 10.126 17.4046C10.6755 17.4094 11.1217 17.8636 11.1264 18.4259C11.1311 18.7743 11.1264 19.1227 11.1264 19.4928H11.1288Z" fill="#6AE2FF"/>
<path d="M9.71037 7.66315C9.39804 7.85298 9.10215 8.04762 8.79217 8.21582C8.63718 8.29992 8.58082 8.41286 8.55264 8.57866C8.48219 8.99437 8.39295 9.40527 8.31311 9.82098C8.29902 9.89547 8.26614 9.94834 8.20508 9.99159C8.05949 10.0925 7.91624 10.1958 7.77064 10.2968C7.64383 10.3857 7.54755 10.3424 7.52172 10.1886C7.43483 9.67681 7.34794 9.16498 7.26575 8.65315C7.25401 8.58107 7.22348 8.54262 7.16477 8.50658C6.73033 8.24946 6.29823 7.98754 5.86614 7.72803C5.72289 7.64152 5.71585 7.543 5.85205 7.44448C5.9953 7.34115 6.14324 7.24023 6.28649 7.1369C6.34285 7.09605 6.40156 7.08164 6.47201 7.09365C6.93463 7.17295 7.3996 7.24744 7.86457 7.32193C7.8998 7.32674 7.94911 7.32193 7.97729 7.2979C8.29197 7.04559 8.60195 6.79088 8.91193 6.53617C8.91898 6.53136 8.92367 6.52416 8.93542 6.51214C8.90958 6.49292 8.88375 6.47129 8.85792 6.45447C8.09706 5.94745 7.33855 5.44043 6.57769 4.93341C6.54246 4.90938 6.50489 4.88055 6.48375 4.8421C6.44853 4.77722 6.46731 4.71715 6.52837 4.6739C6.74442 4.52011 6.96046 4.36392 7.18121 4.21494C7.21643 4.19091 7.28219 4.19091 7.32681 4.20292C8.21917 4.48406 9.11154 4.76761 10.0039 5.05356C10.1636 5.10402 10.3233 5.15448 10.483 5.20735C10.5323 5.22417 10.5675 5.21936 10.6098 5.18332C11.056 4.83489 11.4998 4.48406 11.9507 4.14285C12.317 3.86651 12.8243 3.92899 13.1225 4.27741C13.4137 4.61623 13.4043 5.13045 13.0967 5.46927C13.038 5.53415 12.9652 5.58941 12.8924 5.63747C12.4321 5.93784 11.9671 6.2334 11.5068 6.53377C11.4787 6.55299 11.4575 6.60585 11.4552 6.6443C11.3965 7.64152 11.3401 8.63633 11.2838 9.63355C11.2767 9.7561 11.2673 9.88105 11.2626 10.0036C11.2626 10.0781 11.2344 10.1286 11.1734 10.1718C10.9761 10.3064 10.7789 10.4409 10.591 10.5851C10.4736 10.6764 10.3609 10.638 10.328 10.4794C10.1354 9.57588 9.93816 8.67238 9.74324 7.76647C9.7362 7.73043 9.72681 7.69679 9.71741 7.65353L9.71037 7.66315Z" fill="#6AE2FF"/>
</g>
<defs>
<clipPath id="clip0_15_616">
<rect width="18" height="19" fill="white" transform="translate(0 0.5)"/>
</clipPath>
</defs>
</svg>
