<svg width="26" height="23" viewBox="0 0 26 23" fill="none" xmlns="http://www.w3.org/2000/svg">
<g clip-path="url(#clip0_1_506)">
<path d="M13.5194 12.0892C12.6103 12.7468 11.7531 13.4144 10.8453 14.0063C10.3914 14.3023 10.2488 14.6575 10.2072 15.1638C10.1036 16.4332 9.94097 17.6933 9.80849 18.9653C9.78541 19.1931 9.69867 19.3612 9.52262 19.5082C9.10221 19.8522 8.68967 20.2027 8.26926 20.5466C7.90337 20.8492 7.59542 20.746 7.47411 20.2909C7.06754 18.7764 6.66097 17.2619 6.26884 15.7461C6.21311 15.5327 6.10873 15.4256 5.91833 15.3336C4.51195 14.6816 3.11149 14.0146 1.71168 13.3547C1.24748 13.1345 1.199 12.8403 1.59117 12.5062C2.0037 12.1557 2.43134 11.8111 2.84387 11.4606C3.00613 11.3221 3.1828 11.2624 3.40279 11.2789C4.84746 11.3885 6.29805 11.4829 7.74864 11.5774C7.85831 11.582 8.0087 11.5538 8.08885 11.4738C8.98818 10.6276 9.87241 9.77558 10.7566 8.92353C10.777 8.90712 10.7895 8.88414 10.8223 8.84475C10.7376 8.79416 10.6523 8.73634 10.5683 8.69296C8.08975 7.38061 5.61847 6.0676 3.13997 4.75525C3.02507 4.69282 2.90165 4.61659 2.82617 4.5069C2.70015 4.32166 2.7416 4.13584 2.91765 3.98881C3.54039 3.46632 4.16247 2.93661 4.80097 2.42726C4.90279 2.34521 5.10505 2.3269 5.24558 2.3506C8.06714 2.94729 10.8894 3.55121 13.7122 4.16235C14.2172 4.26958 14.7221 4.37681 15.2278 4.49127C15.384 4.5281 15.4911 4.50385 15.6113 4.38372C16.889 3.21202 18.1588 2.03374 19.453 0.882404C20.5047 -0.0503504 22.082 -0.00378057 23.0943 0.960625C24.0822 1.8981 24.1933 3.44661 23.3392 4.55084C23.1762 4.76223 22.9673 4.94865 22.7565 5.1134C21.4223 6.14455 20.0724 7.16256 18.7383 8.19371C18.6569 8.25935 18.6062 8.42416 18.6095 8.54039C18.7003 11.5546 18.7976 14.561 18.8956 17.5746C18.9073 17.945 18.9124 18.3232 18.9313 18.6929C18.9516 18.9169 18.8786 19.0764 18.7026 19.2235C18.1324 19.6829 17.5622 20.1424 17.0236 20.6281C16.6872 20.9353 16.33 20.8511 16.1857 20.3835C15.3475 17.721 14.4948 15.0597 13.6487 12.3906C13.6172 12.2842 13.5792 12.1857 13.5385 12.0583L13.5194 12.0892Z" fill="#5ED0E6"/>
</g>
<defs>
<clipPath id="clip0_1_506">
<rect width="23.4066" height="20.1136" fill="white" transform="translate(0.336914 2.11035) rotate(-5.17258)"/>
</clipPath>
</defs>
</svg>
