<svg width="29" height="34" viewBox="0 0 29 34" fill="none" xmlns="http://www.w3.org/2000/svg">
<path d="M28.9925 8.40185C28.9119 13.9246 27.901 19.2062 25.3181 24.0728C22.9636 28.5066 19.5646 31.745 15.1882 33.8413C14.7046 34.0719 14.2142 34.0435 13.7305 33.8059C7.21126 30.6029 3.27149 25.1404 1.29656 17.9612C0.312456 14.3893 -0.0905899 10.7358 0.016889 7.0185C0.0471174 5.95084 0.386348 5.45425 1.33351 5.07826C5.52518 3.41114 9.71686 1.73339 13.922 0.0981935C14.278 -0.0401417 14.7684 -0.0295005 15.1278 0.112382C19.3429 1.75112 23.5413 3.43597 27.7498 5.09245C28.5559 5.40814 28.9657 5.99695 28.9925 6.89081C29.0093 7.39449 28.9925 7.90172 28.9925 8.4054V8.40185ZM14.0227 17.0709C13.3241 16.3295 12.6658 15.6166 11.9941 14.9178C11.4869 14.3857 10.795 14.2474 10.1904 14.5312C9.13916 15.0278 8.90405 16.4217 9.73701 17.3156C10.7245 18.3762 11.7287 19.4226 12.7263 20.476C13.6365 21.4373 14.5131 21.4373 15.3998 20.4618C17.6098 18.025 19.8199 15.5846 22.0266 13.1443C22.7151 12.3817 22.7319 11.3282 22.0736 10.6507C21.4086 9.9732 20.4211 10.0229 19.7225 10.7819C19.0138 11.5552 18.3118 12.3355 17.6065 13.1123C16.4242 14.4177 15.2419 15.723 14.0261 17.0673L14.0227 17.0709Z" fill="#2F52E0"/>
</svg>
