<svg width="23" height="23" viewBox="0 0 23 23" fill="none" xmlns="http://www.w3.org/2000/svg">
<g clip-path="url(#clip0_1_555)">
<path d="M20.4014 12.6795H21.6437C21.6617 12.6592 21.6827 12.6475 21.6827 12.6388C21.7067 11.3182 21.7457 9.99468 21.3676 8.70899C20.2364 4.86935 17.6768 2.39395 13.662 1.5184C8.68689 0.433408 3.82283 3.05716 1.98943 7.66763C1.57834 8.70317 1.3713 9.77943 1.34429 10.8877C1.32929 11.4753 1.34429 12.0599 1.34429 12.6737H2.63457V18.98C1.22426 19.2244 0.0630117 18.247 0.0450078 17.0631C0.0120006 14.9077 -0.0330092 12.7464 0.0540097 10.5939C0.171035 7.70254 1.35629 5.22713 3.48375 3.19387C5.18212 1.56203 7.22557 0.535217 9.58408 0.162888C12.9178 -0.363607 15.9515 0.372323 18.61 2.39686C21.0136 4.2265 22.4239 6.64373 22.886 9.5729C22.958 10.0325 22.988 10.5037 22.991 10.9691C23.003 12.9442 22.997 14.9222 22.997 16.8973C22.997 18.1074 22.0608 19.0091 20.8155 19.012C20.6835 19.012 20.5515 19.012 20.4044 19.012V12.6795H20.4014Z" fill="white"/>
<path d="M6.93755 15.8443C6.93755 16.8915 6.93755 17.9416 6.93755 18.9887C6.93755 19.7538 6.37943 20.3763 5.63227 20.4548C4.8401 20.5391 4.15295 20.0621 3.97891 19.3029C3.9549 19.2011 3.9519 19.0935 3.9519 18.9887C3.9519 16.8915 3.9519 14.7971 3.9519 12.6999C3.9519 11.8621 4.60004 11.228 5.44323 11.228C6.28941 11.228 6.93455 11.8592 6.93755 12.697C6.93755 13.7442 6.93755 14.7942 6.93755 15.8414V15.8443Z" fill="white"/>
<path d="M16.0895 15.8414C16.0895 14.7942 16.0895 13.7441 16.0895 12.697C16.0895 11.8621 16.7406 11.2309 17.5868 11.2309C18.43 11.2309 19.0751 11.865 19.0751 12.7057C19.0751 14.803 19.0751 16.8973 19.0751 18.9946C19.0751 19.8294 18.424 20.4635 17.5778 20.4606C16.7346 20.4606 16.0925 19.8236 16.0895 18.9858C16.0895 17.9387 16.0895 16.8886 16.0895 15.8414Z" fill="white"/>
<path d="M20.9536 20.3152C21.3887 20.2192 21.8088 20.129 22.2289 20.0388C22.4479 21.499 21.5717 22.7062 20.0954 22.968C19.9964 22.9854 19.8944 22.9913 19.7953 22.9913C18.433 22.9913 17.0737 22.9913 15.7114 22.9913C15.6574 22.9913 15.6064 22.9913 15.5404 22.9913V21.7259H15.7835C17.0197 21.7259 18.256 21.7259 19.4923 21.7259C20.4585 21.7259 20.9026 21.31 20.9416 20.3791C20.9416 20.3501 20.9506 20.321 20.9506 20.3122L20.9536 20.3152Z" fill="white"/>
<path d="M14.2201 22.9913C13.3379 22.9913 12.4827 23.0175 11.6305 22.9826C10.9584 22.9564 10.4633 22.3397 10.4873 21.6474C10.5083 21.022 11.0784 20.4752 11.7266 20.4635C12.1316 20.4548 12.5337 20.4577 12.9388 20.4635C13.641 20.4693 14.2111 21.0191 14.2171 21.6998C14.2231 22.1215 14.2171 22.5433 14.2171 22.9913H14.2201Z" fill="white"/>
</g>
<defs>
<clipPath id="clip0_1_555">
<rect width="23" height="23" fill="white"/>
</clipPath>
</defs>
</svg>
