<svg width="35" height="33" viewBox="0 0 35 33" fill="none" xmlns="http://www.w3.org/2000/svg">
<path d="M12.7188 3.7H22.2812C22.5734 3.7 22.8125 3.94 22.8125 4.23333V6.9H12.1875V4.23333C12.1875 3.94 12.4266 3.7 12.7188 3.7ZM9 4.23333V6.9V9.03333V32.5H26V9.03333V6.9V4.23333C26 2.17333 24.3332 0.5 22.2812 0.5H12.7188C10.6668 0.5 9 2.17333 9 4.23333ZM6.875 6.9H4.75C2.40586 6.9 0.5 8.81333 0.5 11.1667V28.2333C0.5 30.5867 2.40586 32.5 4.75 32.5H6.875V6.9ZM28.125 32.5H30.25C32.5941 32.5 34.5 30.5867 34.5 28.2333V11.1667C34.5 8.81333 32.5941 6.9 30.25 6.9H28.125V32.5ZM15.375 14.3667C15.375 13.78 15.8531 13.3 16.4375 13.3H18.5625C19.1469 13.3 19.625 13.78 19.625 14.3667V17.5667H22.8125C23.3969 17.5667 23.875 18.0467 23.875 18.6333V20.7667C23.875 21.3533 23.3969 21.8333 22.8125 21.8333H19.625V25.0333C19.625 25.62 19.1469 26.1 18.5625 26.1H16.4375C15.8531 26.1 15.375 25.62 15.375 25.0333V21.8333H12.1875C11.6031 21.8333 11.125 21.3533 11.125 20.7667V18.6333C11.125 18.0467 11.6031 17.5667 12.1875 17.5667H15.375V14.3667Z" fill="#2F52E0"/>
</svg>
