<svg width="37" height="36" viewBox="0 0 37 36" fill="none" xmlns="http://www.w3.org/2000/svg">
<path d="M31.2865 0.489082C31.7657 0.489082 32.245 0.489082 32.7218 0.489082C32.8083 0.513784 32.8898 0.545896 32.9788 0.563188C34.3647 0.812676 35.4172 1.49692 35.768 2.92468C35.9335 3.59904 36.0052 4.32033 35.9755 5.01445C35.9311 6.06675 35.5185 6.97577 34.7057 7.71683C33.0554 9.22117 31.4347 10.7576 29.8264 12.3064C29.52 12.6028 29.2631 12.6646 28.8802 12.504C27.9933 12.1335 27.0643 12.0224 26.1428 12.3287C23.4598 13.2204 20.7694 14.0973 18.1161 15.073C16.5868 15.6338 15.6876 16.8392 15.6233 18.4745C15.5393 20.6482 15.5887 22.8244 15.5961 25.0007C15.5961 25.2304 15.5393 25.3786 15.3738 25.5318C14.351 26.4729 13.3406 27.4264 12.3153 28.3651C12.1325 28.5306 12.1053 28.6664 12.2066 28.8887C12.718 30.03 13.2244 31.1737 13.7111 32.3248C14.1781 33.4363 13.7655 34.6517 12.755 35.2198C11.7372 35.7929 10.581 35.5039 9.84229 34.4936C8.85407 33.1424 7.8708 31.7887 6.87518 30.4425C6.7146 30.2276 6.51696 30.0275 6.30202 29.8669C5.03464 28.9208 3.76479 27.9723 2.47517 27.0534C1.82789 26.5915 1.23003 26.1073 0.987915 25.3094C0.987915 25.013 0.987915 24.7166 0.987915 24.4202C1.00274 24.4029 1.02744 24.3881 1.02991 24.3683C1.31155 23.0517 2.85316 22.1649 4.36513 22.8936C5.43981 23.4123 6.54907 23.857 7.63858 24.3461C7.82634 24.4301 7.93504 24.4078 8.07586 24.2572C10.3833 21.7647 12.6957 19.2797 15.0082 16.7898C15.564 16.192 15.4627 15.6313 14.7364 15.2484C10.8157 13.171 6.89001 11.0985 2.97422 9.0112C2.69752 8.86299 2.43317 8.66538 2.21824 8.43812C1.56108 7.74153 1.46473 6.65959 1.94648 5.80244C2.42329 4.95517 3.23115 4.58958 4.23419 4.79461C5.88203 5.13302 7.5274 5.48132 9.17277 5.82961C13.2986 6.69911 17.4268 7.55874 21.5476 8.45541C22.1505 8.58633 22.5482 8.45541 22.9608 8.01078C24.9422 5.86913 26.9507 3.75466 28.9469 1.62536C29.3298 1.21532 29.7844 0.926304 30.3131 0.758332C30.6318 0.654584 30.9604 0.578009 31.2865 0.489082Z" fill="#2F52E0"/>
<path d="M18.4991 22.0289C18.4991 20.9692 18.4991 19.9095 18.4991 18.8498C18.4991 18.2619 18.7461 17.9087 19.2995 17.7185C21.8047 16.8613 24.3073 16.0017 26.8198 15.1668C27.0792 15.0803 27.4177 15.0778 27.6771 15.1643C30.1872 15.9967 32.6898 16.8564 35.1924 17.7135C35.773 17.9136 36.0028 18.257 36.0028 18.872C36.0028 20.695 35.9756 22.518 36.0102 24.341C36.0596 26.994 35.1084 29.2517 33.3988 31.2254C31.8548 33.0089 29.9599 34.3279 27.8451 35.3481C27.4473 35.5383 27.0693 35.5457 26.6691 35.3506C24.0454 34.0735 21.7602 32.3889 20.1222 29.9261C19.0451 28.3032 18.4719 26.5197 18.4966 24.5559C18.5065 23.7136 18.4966 22.8688 18.4966 22.0265L18.4991 22.0289ZM26.6815 25.3859C26.427 25.1685 26.2022 24.9783 25.9774 24.7856C25.7427 24.5856 25.5129 24.383 25.2757 24.1879C24.6383 23.6667 23.7465 23.7408 23.2252 24.3534C22.7089 24.961 22.7583 25.8355 23.3734 26.3764C24.2184 27.1224 25.0756 27.8561 25.9428 28.5749C26.6271 29.1406 27.4992 29.0319 28.0551 28.3378C28.4405 27.8585 28.816 27.3719 29.1965 26.8878C30.1402 25.6873 31.0889 24.4942 32.0203 23.2862C32.5342 22.6218 32.4279 21.735 31.8078 21.2409C31.1581 20.7271 30.2884 20.8309 29.74 21.4904C29.6239 21.6312 29.5152 21.777 29.4015 21.9202C28.5023 23.0664 27.6005 24.2101 26.679 25.3834L26.6815 25.3859Z" fill="#2F52E0"/>
</svg>
