<svg width="304" height="129" viewBox="0 0 304 129" fill="none" xmlns="http://www.w3.org/2000/svg">
<g filter="url(#filter0_d_1_509)">
<path fill-rule="evenodd" clip-rule="evenodd" d="M204.457 0.000143192C204.457 5.22608 199.11 9.46254 192.515 9.46254C185.919 9.46254 180.572 5.22608 180.572 0.000143192C180.572 9.54612e-05 180.572 4.77306e-05 180.572 0H19C10.7157 0 4 6.71573 4 15V105.908C4 114.193 10.7157 120.908 19 120.908L180.571 120.908C180.571 115.682 185.918 111.446 192.514 111.446C199.11 111.446 204.457 115.682 204.457 120.908L285 120.908C293.284 120.908 300 114.193 300 105.908V15C300 6.71573 293.284 0 285 0H204.457C204.457 4.77306e-05 204.457 9.54612e-05 204.457 0.000143192Z" fill="url(#paint0_linear_1_509)"/>
</g>
<g filter="url(#filter1_d_1_509)">
<path fill-rule="evenodd" clip-rule="evenodd" d="M192.036 111.453C192.195 111.448 192.355 111.446 192.515 111.446C199.111 111.446 204.458 115.682 204.458 120.908V120.908H285C293.284 120.908 300 114.193 300 105.908V15C300 6.71573 293.284 3.8147e-06 285 3.8147e-06L204.458 0C204.458 5.22594 199.111 9.4624 192.515 9.4624C192.355 9.4624 192.195 9.45989 192.036 9.45493V111.453Z" fill="url(#paint1_linear_1_509)"/>
</g>
<path d="M192 10V110" stroke="white" stroke-dasharray="4 4"/>
<path d="M24.0245 13.4545V20H22.9698L19.8857 15.5415H19.8313V20H18.6456V13.4545H19.7067L22.7876 17.9162H22.8452V13.4545H24.0245ZM26.678 20.0991C26.3669 20.0991 26.0867 20.0437 25.8374 19.9329C25.5903 19.82 25.3943 19.6538 25.2494 19.4343C25.1066 19.2148 25.0352 18.9442 25.0352 18.6225C25.0352 18.3455 25.0864 18.1165 25.1887 17.9354C25.2909 17.7543 25.4305 17.6094 25.6073 17.5007C25.7842 17.392 25.9834 17.31 26.205 17.2546C26.4287 17.1971 26.6599 17.1555 26.8985 17.13C27.1862 17.1001 27.4195 17.0735 27.5985 17.0501C27.7774 17.0245 27.9074 16.9862 27.9884 16.935C28.0715 16.8817 28.113 16.7997 28.113 16.6889V16.6697C28.113 16.429 28.0416 16.2425 27.8989 16.1104C27.7561 15.9783 27.5505 15.9123 27.282 15.9123C26.9987 15.9123 26.7739 15.9741 26.6077 16.0977C26.4436 16.2212 26.3328 16.3672 26.2753 16.5355L25.195 16.3821C25.2803 16.0838 25.4209 15.8345 25.6169 15.6342C25.8129 15.4318 26.0526 15.2805 26.336 15.1804C26.6194 15.0781 26.9326 15.027 27.2757 15.027C27.5122 15.027 27.7476 15.0547 27.982 15.1101C28.2164 15.1655 28.4305 15.2571 28.6244 15.3849C28.8183 15.5107 28.9738 15.6822 29.091 15.8995C29.2103 16.1168 29.27 16.3885 29.27 16.7145V20H28.1578V19.3256H28.1194C28.0491 19.462 27.95 19.5898 27.8222 19.7092C27.6965 19.8263 27.5377 19.9212 27.346 19.9936C27.1563 20.0639 26.9337 20.0991 26.678 20.0991ZM26.9784 19.2489C27.2107 19.2489 27.412 19.2031 27.5825 19.1115C27.7529 19.0178 27.884 18.8942 27.9756 18.7408C28.0693 18.5874 28.1162 18.4201 28.1162 18.239V17.6605C28.08 17.6903 28.0182 17.718 27.9308 17.7436C27.8456 17.7692 27.7497 17.7915 27.6432 17.8107C27.5367 17.8299 27.4312 17.8469 27.3268 17.8619C27.2224 17.8768 27.1318 17.8896 27.0551 17.9002C26.8825 17.9237 26.7281 17.962 26.5917 18.0153C26.4553 18.0685 26.3477 18.1431 26.2689 18.239C26.1901 18.3327 26.1507 18.4542 26.1507 18.6033C26.1507 18.8164 26.2284 18.9773 26.384 19.0859C26.5395 19.1946 26.7377 19.2489 26.9784 19.2489ZM30.4333 20V15.0909H31.5392V15.9251H31.5967C31.699 15.6438 31.8683 15.4244 32.1048 15.2667C32.3414 15.1069 32.6237 15.027 32.9518 15.027C33.2842 15.027 33.5644 15.108 33.7923 15.2699C34.0225 15.4297 34.1844 15.6481 34.2781 15.9251H34.3293C34.4379 15.6523 34.6212 15.435 34.879 15.2731C35.1389 15.109 35.4468 15.027 35.8026 15.027C36.2544 15.027 36.623 15.1697 36.9085 15.4553C37.194 15.7408 37.3367 16.1573 37.3367 16.7049V20H36.1766V16.8839C36.1766 16.5792 36.0956 16.3565 35.9337 16.2159C35.7718 16.0732 35.5736 16.0018 35.3392 16.0018C35.0601 16.0018 34.8417 16.0891 34.684 16.2638C34.5285 16.4364 34.4507 16.6612 34.4507 16.9382V20H33.3161V16.8359C33.3161 16.5824 33.2394 16.38 33.086 16.2287C32.9347 16.0774 32.7366 16.0018 32.4916 16.0018C32.3254 16.0018 32.1741 16.0444 32.0377 16.1296C31.9014 16.2127 31.7927 16.331 31.7117 16.4844C31.6308 16.6357 31.5903 16.8125 31.5903 17.0149V20H30.4333ZM40.6838 20.0959C40.1916 20.0959 39.7665 19.9936 39.4086 19.7891C39.0527 19.5824 38.7789 19.2905 38.5872 18.9134C38.3954 18.5341 38.2995 18.0877 38.2995 17.5742C38.2995 17.0692 38.3954 16.6261 38.5872 16.2447C38.7811 15.8612 39.0517 15.5629 39.399 15.3498C39.7463 15.1346 40.1543 15.027 40.623 15.027C40.9256 15.027 41.2111 15.076 41.4796 15.174C41.7502 15.2699 41.9888 15.419 42.1955 15.6214C42.4043 15.8239 42.5684 16.0817 42.6877 16.3949C42.807 16.706 42.8667 17.0767 42.8667 17.5071V17.8619H38.8429V17.082H41.7576C41.7555 16.8604 41.7076 16.6634 41.6138 16.4908C41.5201 16.3161 41.389 16.1786 41.2207 16.0785C41.0545 15.9783 40.8606 15.9283 40.639 15.9283C40.4025 15.9283 40.1948 15.9858 40.0158 16.1009C39.8368 16.2138 39.6973 16.3629 39.5971 16.5483C39.4991 16.7315 39.449 16.9329 39.4469 17.1523V17.8331C39.4469 18.1186 39.4991 18.3636 39.6035 18.5682C39.7079 18.7706 39.8539 18.9261 40.0414 19.0348C40.2289 19.1413 40.4483 19.1946 40.6998 19.1946C40.8681 19.1946 41.0204 19.1712 41.1568 19.1243C41.2931 19.0753 41.4114 19.0039 41.5115 18.9102C41.6117 18.8164 41.6873 18.7003 41.7385 18.5618L42.8187 18.6832C42.7505 18.9687 42.6206 19.218 42.4288 19.4311C42.2392 19.642 41.9963 19.8061 41.7001 19.9233C41.4039 20.0384 41.0652 20.0959 40.6838 20.0959ZM44.5581 20.0703C44.3643 20.0703 44.1981 20.0021 44.0596 19.8658C43.9211 19.7294 43.8529 19.5632 43.855 19.3672C43.8529 19.1754 43.9211 19.0114 44.0596 18.875C44.1981 18.7386 44.3643 18.6705 44.5581 18.6705C44.7456 18.6705 44.9086 18.7386 45.0471 18.875C45.1878 19.0114 45.2591 19.1754 45.2613 19.3672C45.2591 19.4972 45.2251 19.6154 45.159 19.7219C45.0951 19.8285 45.0099 19.9137 44.9033 19.9776C44.7989 20.0394 44.6839 20.0703 44.5581 20.0703ZM44.5581 16.5675C44.3643 16.5675 44.1981 16.4993 44.0596 16.3629C43.9211 16.2244 43.8529 16.0582 43.855 15.8643C43.8529 15.6726 43.9211 15.5085 44.0596 15.3722C44.1981 15.2337 44.3643 15.1644 44.5581 15.1644C44.7456 15.1644 44.9086 15.2337 45.0471 15.3722C45.1878 15.5085 45.2591 15.6726 45.2613 15.8643C45.2591 15.9922 45.2251 16.1094 45.159 16.2159C45.0951 16.3224 45.0099 16.4077 44.9033 16.4716C44.7989 16.5355 44.6839 16.5675 44.5581 16.5675Z" fill="black"/>
<path d="M21.228 25.4545H22.4041V30.0568C22.402 30.4787 22.3125 30.842 22.1357 31.1467C21.9588 31.4492 21.7116 31.6825 21.3942 31.8466C21.0788 32.0085 20.7113 32.0895 20.2915 32.0895C19.908 32.0895 19.5629 32.0213 19.256 31.8849C18.9513 31.7464 18.7095 31.5419 18.5305 31.2713C18.3516 31.0007 18.2621 30.6641 18.2621 30.2614H19.4414C19.4435 30.4382 19.4819 30.5906 19.5565 30.7184C19.6332 30.8462 19.7386 30.9442 19.8729 31.0124C20.0071 31.0806 20.1616 31.1147 20.3363 31.1147C20.5259 31.1147 20.6868 31.0753 20.8189 30.9964C20.951 30.9155 21.0511 30.7962 21.1193 30.6385C21.1896 30.4808 21.2259 30.2869 21.228 30.0568V25.4545ZM25.052 32.0991C24.7409 32.0991 24.4608 32.0437 24.2115 31.9329C23.9643 31.82 23.7683 31.6538 23.6234 31.4343C23.4806 31.2148 23.4093 30.9442 23.4093 30.6225C23.4093 30.3455 23.4604 30.1165 23.5627 29.9354C23.665 29.7543 23.8045 29.6094 23.9814 29.5007C24.1582 29.392 24.3574 29.31 24.579 29.2546C24.8027 29.1971 25.0339 29.1555 25.2725 29.13C25.5602 29.1001 25.7935 29.0735 25.9725 29.0501C26.1515 29.0245 26.2814 28.9862 26.3624 28.935C26.4455 28.8817 26.487 28.7997 26.487 28.6889V28.6697C26.487 28.429 26.4157 28.2425 26.2729 28.1104C26.1301 27.9783 25.9245 27.9123 25.6561 27.9123C25.3727 27.9123 25.1479 27.9741 24.9817 28.0977C24.8176 28.2212 24.7069 28.3672 24.6493 28.5355L23.5691 28.3821C23.6543 28.0838 23.7949 27.8345 23.9909 27.6342C24.187 27.4318 24.4267 27.2805 24.71 27.1804C24.9934 27.0781 25.3066 27.027 25.6497 27.027C25.8862 27.027 26.1216 27.0547 26.356 27.1101C26.5904 27.1655 26.8045 27.2571 26.9984 27.3849C27.1923 27.5107 27.3478 27.6822 27.465 27.8995C27.5843 28.1168 27.644 28.3885 27.644 28.7145V32H26.5318V31.3256H26.4934C26.4231 31.462 26.324 31.5898 26.1962 31.7092C26.0705 31.8263 25.9118 31.9212 25.72 31.9936C25.5304 32.0639 25.3077 32.0991 25.052 32.0991ZM25.3525 31.2489C25.5847 31.2489 25.786 31.2031 25.9565 31.1115C26.127 31.0178 26.258 30.8942 26.3496 30.7408C26.4434 30.5874 26.4902 30.4201 26.4902 30.239V29.6605C26.454 29.6903 26.3922 29.718 26.3049 29.7436C26.2196 29.7692 26.1238 29.7915 26.0172 29.8107C25.9107 29.8299 25.8052 29.8469 25.7008 29.8619C25.5964 29.8768 25.5059 29.8896 25.4292 29.9002C25.2566 29.9237 25.1021 29.962 24.9657 30.0153C24.8294 30.0685 24.7218 30.1431 24.6429 30.239C24.5641 30.3327 24.5247 30.4542 24.5247 30.6033C24.5247 30.8164 24.6025 30.9773 24.758 31.0859C24.9135 31.1946 25.1117 31.2489 25.3525 31.2489ZM29.9643 29.1236V32H28.8074V27.0909H29.9132V27.9251H29.9707C30.0836 27.6502 30.2637 27.4318 30.5108 27.2699C30.7601 27.108 31.068 27.027 31.4345 27.027C31.7733 27.027 32.0684 27.0994 32.3198 27.2443C32.5733 27.3892 32.7694 27.5991 32.9078 27.8739C33.0485 28.1488 33.1177 28.4822 33.1156 28.8743V32H31.9586V29.0533C31.9586 28.7251 31.8734 28.4684 31.7029 28.283C31.5346 28.0977 31.3013 28.005 31.003 28.005C30.8006 28.005 30.6206 28.0497 30.4629 28.1392C30.3074 28.2266 30.1848 28.3533 30.0953 28.5195C30.008 28.6857 29.9643 28.8871 29.9643 29.1236ZM36.465 32.0959C35.9728 32.0959 35.5478 31.9936 35.1898 31.7891C34.834 31.5824 34.5602 31.2905 34.3684 30.9134C34.1767 30.5341 34.0808 30.0877 34.0808 29.5742C34.0808 29.0692 34.1767 28.6261 34.3684 28.2447C34.5623 27.8612 34.8329 27.5629 35.1802 27.3498C35.5275 27.1346 35.9355 27.027 36.4043 27.027C36.7069 27.027 36.9924 27.076 37.2608 27.174C37.5314 27.2699 37.7701 27.419 37.9767 27.6214C38.1855 27.8239 38.3496 28.0817 38.4689 28.3949C38.5882 28.706 38.6479 29.0767 38.6479 29.5071V29.8619H34.6241V29.082H37.5389C37.5368 28.8604 37.4888 28.6634 37.3951 28.4908C37.3013 28.3161 37.1703 28.1786 37.002 28.0785C36.8358 27.9783 36.6419 27.9283 36.4203 27.9283C36.1838 27.9283 35.976 27.9858 35.7971 28.1009C35.6181 28.2138 35.4785 28.3629 35.3784 28.5483C35.2804 28.7315 35.2303 28.9329 35.2282 29.1523V29.8331C35.2282 30.1186 35.2804 30.3636 35.3848 30.5682C35.4892 30.7706 35.6351 30.9261 35.8226 31.0348C36.0101 31.1413 36.2296 31.1946 36.481 31.1946C36.6493 31.1946 36.8017 31.1712 36.938 31.1243C37.0744 31.0753 37.1926 31.0039 37.2928 30.9102C37.3929 30.8164 37.4686 30.7003 37.5197 30.5618L38.6 30.6832C38.5318 30.9687 38.4018 31.218 38.2101 31.4311C38.0204 31.642 37.7775 31.8061 37.4814 31.9233C37.1852 32.0384 36.8464 32.0959 36.465 32.0959ZM45.4674 27.2539C45.4376 26.9748 45.3119 26.7575 45.0903 26.6019C44.8708 26.4464 44.5853 26.3686 44.2338 26.3686C43.9866 26.3686 43.7746 26.4059 43.5977 26.4805C43.4209 26.555 43.2856 26.6562 43.1919 26.7841C43.0981 26.9119 43.0502 27.0579 43.048 27.2219C43.048 27.3583 43.0789 27.4766 43.1407 27.5767C43.2046 27.6768 43.2909 27.7621 43.3996 27.8324C43.5083 27.9006 43.6286 27.9581 43.7607 28.005C43.8928 28.0518 44.026 28.0913 44.1602 28.1232L44.7739 28.2766C45.021 28.3342 45.2586 28.4119 45.4866 28.5099C45.7167 28.608 45.9223 28.7315 46.1034 28.8807C46.2867 29.0298 46.4316 29.2099 46.5381 29.4208C46.6446 29.6317 46.6979 29.8789 46.6979 30.1623C46.6979 30.5458 46.5999 30.8835 46.4039 31.1754C46.2078 31.4652 45.9244 31.6921 45.5537 31.8562C45.1851 32.0181 44.7387 32.0991 44.2146 32.0991C43.7053 32.0991 43.2632 32.0202 42.8882 31.8626C42.5154 31.7049 42.2235 31.4748 42.0125 31.1722C41.8037 30.8697 41.6908 30.5011 41.6737 30.0664H42.8403C42.8573 30.2944 42.9276 30.484 43.0512 30.6353C43.1748 30.7866 43.3357 30.8995 43.5338 30.9741C43.7341 31.0487 43.9578 31.0859 44.205 31.0859C44.4628 31.0859 44.6887 31.0476 44.8825 30.9709C45.0786 30.892 45.232 30.7834 45.3428 30.6449C45.4536 30.5043 45.51 30.3402 45.5122 30.1527C45.51 29.9822 45.46 29.8416 45.3619 29.7308C45.2639 29.6179 45.1265 29.5241 44.9497 29.4496C44.7749 29.3729 44.5704 29.3047 44.336 29.245L43.5914 29.0533C43.0523 28.9148 42.6262 28.7049 42.3129 28.4237C42.0019 28.1403 41.8463 27.7642 41.8463 27.2955C41.8463 26.9098 41.9507 26.5721 42.1595 26.2823C42.3705 25.9925 42.657 25.7678 43.0193 25.608C43.3815 25.446 43.7916 25.3651 44.2497 25.3651C44.7142 25.3651 45.1212 25.446 45.4706 25.608C45.8222 25.7678 46.0981 25.9904 46.2984 26.2759C46.4987 26.5593 46.602 26.8853 46.6084 27.2539H45.4674ZM49.8452 32.0959C49.3551 32.0959 48.9343 31.9883 48.5827 31.7731C48.2333 31.5579 47.9638 31.2607 47.7741 30.8814C47.5866 30.5 47.4929 30.0611 47.4929 29.5646C47.4929 29.0661 47.5888 28.6261 47.7805 28.2447C47.9723 27.8612 48.2429 27.5629 48.5923 27.3498C48.9439 27.1346 49.3594 27.027 49.8388 27.027C50.2372 27.027 50.5898 27.1005 50.8967 27.2475C51.2056 27.3924 51.4517 27.598 51.6349 27.8643C51.8182 28.1286 51.9226 28.4375 51.9482 28.7912H50.8423C50.7976 28.5547 50.6911 28.3576 50.5227 28.1999C50.3565 28.0401 50.1339 27.9602 49.8548 27.9602C49.6183 27.9602 49.4105 28.0241 49.2315 28.152C49.0526 28.2777 48.913 28.4588 48.8129 28.6953C48.7148 28.9318 48.6658 29.2152 48.6658 29.5455C48.6658 29.88 48.7148 30.1676 48.8129 30.4084C48.9109 30.647 49.0483 30.8313 49.2251 30.9613C49.4041 31.0891 49.614 31.1531 49.8548 31.1531C50.0252 31.1531 50.1776 31.1211 50.3118 31.0572C50.4482 30.9911 50.5621 30.8963 50.6538 30.7727C50.7454 30.6491 50.8082 30.4989 50.8423 30.3221H51.9482C51.9205 30.6694 51.8182 30.9773 51.6413 31.2457C51.4645 31.5121 51.2237 31.7209 50.919 31.8722C50.6143 32.0213 50.2564 32.0959 49.8452 32.0959ZM55.0395 32.0959C54.5601 32.0959 54.1446 31.9904 53.7931 31.7795C53.4415 31.5685 53.1688 31.2734 52.9749 30.8942C52.7831 30.5149 52.6872 30.0717 52.6872 29.5646C52.6872 29.0575 52.7831 28.6133 52.9749 28.2319C53.1688 27.8505 53.4415 27.5543 53.7931 27.3434C54.1446 27.1325 54.5601 27.027 55.0395 27.027C55.5189 27.027 55.9344 27.1325 56.286 27.3434C56.6375 27.5543 56.9092 27.8505 57.1009 28.2319C57.2948 28.6133 57.3918 29.0575 57.3918 29.5646C57.3918 30.0717 57.2948 30.5149 57.1009 30.8942C56.9092 31.2734 56.6375 31.5685 56.286 31.7795C55.9344 31.9904 55.5189 32.0959 55.0395 32.0959ZM55.0459 31.169C55.3058 31.169 55.5232 31.0977 55.6979 30.9549C55.8726 30.81 56.0026 30.6161 56.0878 30.3732C56.1752 30.1303 56.2188 29.8597 56.2188 29.5614C56.2188 29.261 56.1752 28.9893 56.0878 28.7464C56.0026 28.5014 55.8726 28.3065 55.6979 28.1616C55.5232 28.0167 55.3058 27.9442 55.0459 27.9442C54.7796 27.9442 54.558 28.0167 54.3811 28.1616C54.2064 28.3065 54.0754 28.5014 53.988 28.7464C53.9028 28.9893 53.8602 29.261 53.8602 29.5614C53.8602 29.8597 53.9028 30.1303 53.988 30.3732C54.0754 30.6161 54.2064 30.81 54.3811 30.9549C54.558 31.0977 54.7796 31.169 55.0459 31.169ZM60.8251 27.0909V27.9858H58.003V27.0909H60.8251ZM58.6998 25.9148H59.8567V30.5234C59.8567 30.679 59.8801 30.7983 59.927 30.8814C59.976 30.9624 60.04 31.0178 60.1188 31.0476C60.1976 31.0774 60.285 31.0923 60.3809 31.0923C60.4533 31.0923 60.5194 31.087 60.579 31.0763C60.6408 31.0657 60.6877 31.0561 60.7196 31.0476L60.9146 31.9521C60.8528 31.9734 60.7644 31.9968 60.6493 32.0224C60.5364 32.0479 60.3979 32.0629 60.2338 32.0671C59.9441 32.0756 59.6831 32.032 59.4508 31.9361C59.2186 31.8381 59.0343 31.6868 58.8979 31.4822C58.7637 31.2777 58.6976 31.022 58.6998 30.7152V25.9148ZM64.2441 27.0909V27.9858H61.422V27.0909H64.2441ZM62.1187 25.9148H63.2757V30.5234C63.2757 30.679 63.2991 30.7983 63.346 30.8814C63.395 30.9624 63.4589 31.0178 63.5377 31.0476C63.6166 31.0774 63.7039 31.0923 63.7998 31.0923C63.8722 31.0923 63.9383 31.087 63.998 31.0763C64.0597 31.0657 64.1066 31.0561 64.1386 31.0476L64.3335 31.9521C64.2718 31.9734 64.1833 31.9968 64.0683 32.0224C63.9553 32.0479 63.8169 32.0629 63.6528 32.0671C63.363 32.0756 63.102 32.032 62.8698 31.9361C62.6375 31.8381 62.4532 31.6868 62.3169 31.4822C62.1826 31.2777 62.1166 31.022 62.1187 30.7152V25.9148ZM69.7132 32H67.4952V25.4545H69.758C70.4078 25.4545 70.9661 25.5856 71.4327 25.8477C71.9015 26.1076 72.2615 26.4815 72.513 26.9695C72.7644 27.4574 72.8901 28.0412 72.8901 28.7209C72.8901 29.4027 72.7633 29.9886 72.5098 30.4787C72.2583 30.9687 71.8951 31.3448 71.4199 31.6069C70.9469 31.869 70.378 32 69.7132 32ZM68.6809 30.9741H69.6557C70.1117 30.9741 70.492 30.891 70.7967 30.7248C71.1014 30.5565 71.3304 30.3061 71.4838 29.9737C71.6373 29.6392 71.714 29.2216 71.714 28.7209C71.714 28.2202 71.6373 27.8047 71.4838 27.4744C71.3304 27.142 71.1035 26.8938 70.8031 26.7298C70.5048 26.5636 70.1341 26.4805 69.6909 26.4805H68.6809V30.9741ZM76.1069 32.0959C75.6275 32.0959 75.212 31.9904 74.8604 31.7795C74.5089 31.5685 74.2362 31.2734 74.0423 30.8942C73.8505 30.5149 73.7546 30.0717 73.7546 29.5646C73.7546 29.0575 73.8505 28.6133 74.0423 28.2319C74.2362 27.8505 74.5089 27.5543 74.8604 27.3434C75.212 27.1325 75.6275 27.027 76.1069 27.027C76.5863 27.027 77.0018 27.1325 77.3533 27.3434C77.7049 27.5543 77.9766 27.8505 78.1683 28.2319C78.3622 28.6133 78.4592 29.0575 78.4592 29.5646C78.4592 30.0717 78.3622 30.5149 78.1683 30.8942C77.9766 31.2734 77.7049 31.5685 77.3533 31.7795C77.0018 31.9904 76.5863 32.0959 76.1069 32.0959ZM76.1133 31.169C76.3732 31.169 76.5906 31.0977 76.7653 30.9549C76.94 30.81 77.07 30.6161 77.1552 30.3732C77.2425 30.1303 77.2862 29.8597 77.2862 29.5614C77.2862 29.261 77.2425 28.9893 77.1552 28.7464C77.07 28.5014 76.94 28.3065 76.7653 28.1616C76.5906 28.0167 76.3732 27.9442 76.1133 27.9442C75.8469 27.9442 75.6254 28.0167 75.4485 28.1616C75.2738 28.3065 75.1428 28.5014 75.0554 28.7464C74.9702 28.9893 74.9276 29.261 74.9276 29.5614C74.9276 29.8597 74.9702 30.1303 75.0554 30.3732C75.1428 30.6161 75.2738 30.81 75.4485 30.9549C75.6254 31.0977 75.8469 31.169 76.1133 31.169ZM81.6144 32.0959C81.1222 32.0959 80.6972 31.9936 80.3392 31.7891C79.9834 31.5824 79.7096 31.2905 79.5178 30.9134C79.3261 30.5341 79.2302 30.0877 79.2302 29.5742C79.2302 29.0692 79.3261 28.6261 79.5178 28.2447C79.7117 27.8612 79.9823 27.5629 80.3296 27.3498C80.6769 27.1346 81.085 27.027 81.5537 27.027C81.8563 27.027 82.1418 27.076 82.4102 27.174C82.6808 27.2699 82.9195 27.419 83.1262 27.6214C83.335 27.8239 83.499 28.0817 83.6183 28.3949C83.7377 28.706 83.7973 29.0767 83.7973 29.5071V29.8619H79.7735V29.082H82.6883C82.6862 28.8604 82.6382 28.6634 82.5445 28.4908C82.4507 28.3161 82.3197 28.1786 82.1514 28.0785C81.9852 27.9783 81.7913 27.9283 81.5697 27.9283C81.3332 27.9283 81.1254 27.9858 80.9465 28.1009C80.7675 28.2138 80.6279 28.3629 80.5278 28.5483C80.4298 28.7315 80.3797 28.9329 80.3776 29.1523V29.8331C80.3776 30.1186 80.4298 30.3636 80.5342 30.5682C80.6386 30.7706 80.7845 30.9261 80.972 31.0348C81.1595 31.1413 81.379 31.1946 81.6304 31.1946C81.7987 31.1946 81.9511 31.1712 82.0874 31.1243C82.2238 31.0753 82.3421 31.0039 82.4422 30.9102C82.5423 30.8164 82.618 30.7003 82.6691 30.5618L83.7494 30.6832C83.6812 30.9687 83.5512 31.218 83.3595 31.4311C83.1698 31.642 82.9269 31.8061 82.6308 31.9233C82.3346 32.0384 81.9958 32.0959 81.6144 32.0959Z" fill="#344050"/>
<path d="M18.5817 103V102.143L20.854 99.9158C21.0714 99.6964 21.2525 99.5014 21.3974 99.331C21.5423 99.1605 21.6509 98.9954 21.7234 98.8356C21.7958 98.6758 21.832 98.5053 21.832 98.3242C21.832 98.1175 21.7852 97.9407 21.6914 97.7937C21.5977 97.6445 21.4688 97.5295 21.3047 97.4485C21.1406 97.3675 20.9542 97.3271 20.7454 97.3271C20.5302 97.3271 20.3416 97.3718 20.1797 97.4613C20.0178 97.5487 19.892 97.6733 19.8026 97.8352C19.7152 97.9972 19.6715 98.19 19.6715 98.4137H18.5433C18.5433 97.9982 18.6381 97.6371 18.8278 97.3303C19.0174 97.0234 19.2784 96.7859 19.6108 96.6175C19.9453 96.4492 20.3288 96.3651 20.7614 96.3651C21.2003 96.3651 21.5859 96.4471 21.9183 96.6112C22.2507 96.7752 22.5085 97 22.6918 97.2855C22.8771 97.571 22.9698 97.897 22.9698 98.2635C22.9698 98.5085 22.9229 98.7493 22.8292 98.9858C22.7354 99.2223 22.5703 99.4844 22.3338 99.772C22.0994 100.06 21.7702 100.408 21.3462 100.817L20.218 101.964V102.009H23.0689V103H18.5817ZM24.4112 103L27.195 97.4901V97.4453H23.9638V96.4545H28.4222V97.4677L25.6417 103H24.4112ZM32.1384 96.1477L30.029 103.984H29.0159L31.1253 96.1477H32.1384ZM35.2833 103.125C34.757 103.125 34.3053 102.991 33.9282 102.725C33.5532 102.457 33.2645 102.07 33.0621 101.565C32.8618 101.058 32.7616 100.447 32.7616 99.7337C32.7638 99.0199 32.865 98.4126 33.0653 97.9119C33.2677 97.4091 33.5564 97.0256 33.9314 96.7614C34.3085 96.4972 34.7591 96.3651 35.2833 96.3651C35.8074 96.3651 36.2581 96.4972 36.6352 96.7614C37.0123 97.0256 37.301 97.4091 37.5013 97.9119C37.7037 98.4148 37.805 99.022 37.805 99.7337C37.805 100.45 37.7037 101.061 37.5013 101.568C37.301 102.073 37.0123 102.459 36.6352 102.725C36.2602 102.991 35.8096 103.125 35.2833 103.125ZM35.2833 102.124C35.6924 102.124 36.0152 101.923 36.2517 101.52C36.4903 101.115 36.6096 100.52 36.6096 99.7337C36.6096 99.2138 36.5553 98.777 36.4466 98.4233C36.338 98.0696 36.1846 97.8033 35.9864 97.6243C35.7883 97.4432 35.5539 97.3526 35.2833 97.3526C34.8763 97.3526 34.5546 97.555 34.3181 97.9599C34.0816 98.3626 33.9623 98.9538 33.9601 99.7337C33.958 100.256 34.0102 100.695 34.1167 101.05C34.2254 101.406 34.3788 101.675 34.577 101.856C34.7751 102.035 35.0106 102.124 35.2833 102.124ZM41.1935 103.089C40.7184 103.089 40.2965 103.01 39.9279 102.85C39.5614 102.69 39.2738 102.472 39.065 102.195C38.8583 101.915 38.756 101.599 38.7582 101.245C38.756 100.971 38.8157 100.718 38.9371 100.488C39.0586 100.258 39.2227 100.066 39.4293 99.9126C39.6381 99.7571 39.8704 99.658 40.1261 99.6154V99.5707C39.7894 99.4961 39.5167 99.3246 39.3079 99.0561C39.1012 98.7855 38.9989 98.4734 39.0011 98.1197C38.9989 97.783 39.0927 97.4826 39.2823 97.2184C39.4719 96.9542 39.7319 96.7464 40.0621 96.5952C40.3924 96.4418 40.7695 96.3651 41.1935 96.3651C41.6133 96.3651 41.9872 96.4418 42.3153 96.5952C42.6456 96.7464 42.9055 96.9542 43.0952 97.2184C43.2869 97.4826 43.3828 97.783 43.3828 98.1197C43.3828 98.4734 43.2773 98.7855 43.0664 99.0561C42.8576 99.3246 42.5881 99.4961 42.2578 99.5707V99.6154C42.5135 99.658 42.7436 99.7571 42.9482 99.9126C43.1548 100.066 43.3189 100.258 43.4403 100.488C43.5639 100.718 43.6257 100.971 43.6257 101.245C43.6257 101.599 43.5213 101.915 43.3125 102.195C43.1037 102.472 42.8161 102.69 42.4496 102.85C42.0852 103.01 41.6665 103.089 41.1935 103.089ZM41.1935 102.175C41.4386 102.175 41.6516 102.134 41.8327 102.051C42.0138 101.966 42.1545 101.846 42.2546 101.693C42.3548 101.539 42.4059 101.363 42.408 101.162C42.4059 100.953 42.3516 100.769 42.245 100.609C42.1406 100.447 41.9968 100.321 41.8136 100.229C41.6325 100.137 41.4258 100.092 41.1935 100.092C40.9592 100.092 40.7504 100.137 40.5671 100.229C40.3839 100.321 40.239 100.447 40.1325 100.609C40.0281 100.769 39.9769 100.953 39.979 101.162C39.9769 101.363 40.0259 101.539 40.1261 101.693C40.2262 101.844 40.3668 101.962 40.5479 102.048C40.7312 102.133 40.9464 102.175 41.1935 102.175ZM41.1935 99.1935C41.3938 99.1935 41.5707 99.1531 41.7241 99.0721C41.8796 98.9911 42.0021 98.8782 42.0916 98.7333C42.1811 98.5884 42.2269 98.4212 42.229 98.2315C42.2269 98.044 42.1822 97.88 42.0948 97.7393C42.0075 97.5966 41.886 97.4869 41.7305 97.4102C41.5749 97.3313 41.396 97.2919 41.1935 97.2919C40.9869 97.2919 40.8047 97.3313 40.647 97.4102C40.4915 97.4869 40.37 97.5966 40.2827 97.7393C40.1974 97.88 40.1559 98.044 40.158 98.2315C40.1559 98.4212 40.1985 98.5884 40.2859 98.7333C40.3754 98.8761 40.4979 98.989 40.6534 99.0721C40.8111 99.1531 40.9911 99.1935 41.1935 99.1935ZM47.3611 96.1477L45.2517 103.984H44.2385L46.3479 96.1477H47.3611ZM48.0866 103V102.143L50.3589 99.9158C50.5763 99.6964 50.7574 99.5014 50.9023 99.331C51.0471 99.1605 51.1558 98.9954 51.2282 98.8356C51.3007 98.6758 51.3369 98.5053 51.3369 98.3242C51.3369 98.1175 51.29 97.9407 51.1963 97.7937C51.1025 97.6445 50.9736 97.5295 50.8096 97.4485C50.6455 97.3675 50.4591 97.3271 50.2503 97.3271C50.0351 97.3271 49.8465 97.3718 49.6846 97.4613C49.5226 97.5487 49.3969 97.6733 49.3074 97.8352C49.2201 97.9972 49.1764 98.19 49.1764 98.4137H48.0482C48.0482 97.9982 48.143 97.6371 48.3327 97.3303C48.5223 97.0234 48.7833 96.7859 49.1157 96.6175C49.4502 96.4492 49.8337 96.3651 50.2662 96.3651C50.7052 96.3651 51.0908 96.4471 51.4232 96.6112C51.7556 96.7752 52.0134 97 52.1966 97.2855C52.382 97.571 52.4747 97.897 52.4747 98.2635C52.4747 98.5085 52.4278 98.7493 52.3341 98.9858C52.2403 99.2223 52.0752 99.4844 51.8387 99.772C51.6043 100.06 51.2751 100.408 50.8511 100.817L49.7229 101.964V102.009H52.5738V103H48.0866ZM56.0958 103.125C55.5695 103.125 55.1178 102.991 54.7407 102.725C54.3657 102.457 54.077 102.07 53.8746 101.565C53.6743 101.058 53.5741 100.447 53.5741 99.7337C53.5763 99.0199 53.6775 98.4126 53.8778 97.9119C54.0802 97.4091 54.3689 97.0256 54.7439 96.7614C55.121 96.4972 55.5716 96.3651 56.0958 96.3651C56.6199 96.3651 57.0706 96.4972 57.4477 96.7614C57.8248 97.0256 58.1135 97.4091 58.3138 97.9119C58.5162 98.4148 58.6175 99.022 58.6175 99.7337C58.6175 100.45 58.5162 101.061 58.3138 101.568C58.1135 102.073 57.8248 102.459 57.4477 102.725C57.0727 102.991 56.6221 103.125 56.0958 103.125ZM56.0958 102.124C56.5049 102.124 56.8277 101.923 57.0642 101.52C57.3028 101.115 57.4221 100.52 57.4221 99.7337C57.4221 99.2138 57.3678 98.777 57.2591 98.4233C57.1505 98.0696 56.9971 97.8033 56.7989 97.6243C56.6008 97.4432 56.3664 97.3526 56.0958 97.3526C55.6888 97.3526 55.3671 97.555 55.1306 97.9599C54.8941 98.3626 54.7748 98.9538 54.7726 99.7337C54.7705 100.256 54.8227 100.695 54.9292 101.05C55.0379 101.406 55.1913 101.675 55.3895 101.856C55.5876 102.035 55.8231 102.124 56.0958 102.124ZM59.6793 103V102.143L61.9517 99.9158C62.169 99.6964 62.3501 99.5014 62.495 99.331C62.6399 99.1605 62.7486 98.9954 62.821 98.8356C62.8935 98.6758 62.9297 98.5053 62.9297 98.3242C62.9297 98.1175 62.8828 97.9407 62.7891 97.7937C62.6953 97.6445 62.5664 97.5295 62.4023 97.4485C62.2383 97.3675 62.0518 97.3271 61.843 97.3271C61.6278 97.3271 61.4393 97.3718 61.2773 97.4613C61.1154 97.5487 60.9897 97.6733 60.9002 97.8352C60.8129 97.9972 60.7692 98.19 60.7692 98.4137H59.641C59.641 97.9982 59.7358 97.6371 59.9254 97.3303C60.1151 97.0234 60.3761 96.7859 60.7085 96.6175C61.043 96.4492 61.4265 96.3651 61.859 96.3651C62.2979 96.3651 62.6836 96.4471 63.016 96.6112C63.3484 96.7752 63.6062 97 63.7894 97.2855C63.9748 97.571 64.0675 97.897 64.0675 98.2635C64.0675 98.5085 64.0206 98.7493 63.9268 98.9858C63.8331 99.2223 63.668 99.4844 63.4315 99.772C63.1971 100.06 62.8679 100.408 62.4439 100.817L61.3157 101.964V102.009H64.1665V103H59.6793ZM67.5447 103.089C67.1186 103.089 66.7372 103.01 66.4006 102.85C66.0639 102.688 65.7965 102.466 65.5984 102.185C65.4023 101.904 65.2979 101.582 65.2852 101.22H66.4357C66.457 101.488 66.5732 101.708 66.7841 101.878C66.995 102.047 67.2486 102.131 67.5447 102.131C67.777 102.131 67.9837 102.077 68.1648 101.971C68.3459 101.864 68.4886 101.716 68.593 101.527C68.6974 101.337 68.7486 101.121 68.7464 100.878C68.7486 100.631 68.6964 100.411 68.5898 100.219C68.4833 100.028 68.3374 99.8775 68.152 99.7688C67.9666 99.658 67.7536 99.6026 67.5128 99.6026C67.3168 99.6005 67.1239 99.6367 66.9343 99.7113C66.7447 99.7859 66.5945 99.8839 66.4837 100.005L65.413 99.8295L65.755 96.4545H69.5518V97.4453H66.7362L66.5476 99.1808H66.5859C66.7074 99.038 66.8789 98.9197 67.1005 98.826C67.3221 98.7301 67.565 98.6822 67.8292 98.6822C68.2255 98.6822 68.5792 98.7759 68.8903 98.9634C69.2013 99.1488 69.4464 99.4045 69.6254 99.7305C69.8043 100.056 69.8938 100.429 69.8938 100.849C69.8938 101.282 69.7937 101.667 69.5934 102.006C69.3952 102.343 69.1193 102.608 68.7656 102.802C68.4141 102.994 68.0071 103.089 67.5447 103.089Z" fill="#344050"/>
<path d="M22.2028 86.2539C22.1729 85.9748 22.0472 85.7575 21.8256 85.6019C21.6062 85.4464 21.3207 85.3686 20.9691 85.3686C20.7219 85.3686 20.5099 85.4059 20.3331 85.4805C20.1563 85.555 20.021 85.6562 19.9272 85.7841C19.8335 85.9119 19.7855 86.0579 19.7834 86.2219C19.7834 86.3583 19.8143 86.4766 19.8761 86.5767C19.94 86.6768 20.0263 86.7621 20.1349 86.8324C20.2436 86.9006 20.364 86.9581 20.4961 87.005C20.6282 87.0518 20.7614 87.0913 20.8956 87.1232L21.5092 87.2766C21.7564 87.3342 21.994 87.4119 22.2219 87.5099C22.4521 87.608 22.6577 87.7315 22.8388 87.8807C23.022 88.0298 23.1669 88.2099 23.2734 88.4208C23.38 88.6317 23.4332 88.8789 23.4332 89.1623C23.4332 89.5458 23.3352 89.8835 23.1392 90.1754C22.9432 90.4652 22.6598 90.6921 22.2891 90.8562C21.9205 91.0181 21.4741 91.0991 20.9499 91.0991C20.4407 91.0991 19.9986 91.0202 19.6236 90.8626C19.2507 90.7049 18.9588 90.4748 18.7479 90.1722C18.5391 89.8697 18.4261 89.5011 18.4091 89.0664H19.5756C19.5927 89.2944 19.663 89.484 19.7866 89.6353C19.9102 89.7866 20.071 89.8995 20.2692 89.9741C20.4695 90.0487 20.6932 90.0859 20.9403 90.0859C21.1982 90.0859 21.424 90.0476 21.6179 89.9709C21.8139 89.892 21.9673 89.7834 22.0781 89.6449C22.1889 89.5043 22.2454 89.3402 22.2475 89.1527C22.2454 88.9822 22.1953 88.8416 22.0973 88.7308C21.9993 88.6179 21.8619 88.5241 21.685 88.4496C21.5103 88.3729 21.3058 88.3047 21.0714 88.245L20.3267 88.0533C19.7876 87.9148 19.3615 87.7049 19.0483 87.4237C18.7372 87.1403 18.5817 86.7642 18.5817 86.2955C18.5817 85.9098 18.6861 85.5721 18.8949 85.2823C19.1058 84.9925 19.3924 84.7678 19.7546 84.608C20.1168 84.446 20.527 84.3651 20.9851 84.3651C21.4496 84.3651 21.8565 84.446 22.206 84.608C22.5575 84.7678 22.8335 84.9904 23.0337 85.2759C23.234 85.5593 23.3374 85.8853 23.3438 86.2539H22.2028ZM26.8905 86.0909V86.9858H24.0684V86.0909H26.8905ZM24.7652 84.9148H25.9221V89.5234C25.9221 89.679 25.9456 89.7983 25.9925 89.8814C26.0415 89.9624 26.1054 90.0178 26.1842 90.0476C26.2631 90.0774 26.3504 90.0923 26.4463 90.0923C26.5187 90.0923 26.5848 90.087 26.6444 90.0763C26.7062 90.0657 26.7531 90.0561 26.7851 90.0476L26.98 90.9521C26.9182 90.9734 26.8298 90.9968 26.7148 91.0224C26.6018 91.0479 26.4633 91.0629 26.2993 91.0671C26.0095 91.0756 25.7485 91.032 25.5162 90.9361C25.284 90.8381 25.0997 90.6868 24.9633 90.4822C24.8291 90.2777 24.7631 90.022 24.7652 89.7152V84.9148ZM29.2708 91.0991C28.9597 91.0991 28.6795 91.0437 28.4302 90.9329C28.1831 90.82 27.987 90.6538 27.8422 90.4343C27.6994 90.2148 27.628 89.9442 27.628 89.6225C27.628 89.3455 27.6792 89.1165 27.7814 88.9354C27.8837 88.7543 28.0233 88.6094 28.2001 88.5007C28.377 88.392 28.5762 88.31 28.7978 88.2546C29.0215 88.1971 29.2527 88.1555 29.4913 88.13C29.7789 88.1001 30.0123 88.0735 30.1912 88.0501C30.3702 88.0245 30.5002 87.9862 30.5811 87.935C30.6642 87.8817 30.7058 87.7997 30.7058 87.6889V87.6697C30.7058 87.429 30.6344 87.2425 30.4917 87.1104C30.3489 86.9783 30.1433 86.9123 29.8748 86.9123C29.5914 86.9123 29.3667 86.9741 29.2005 87.0977C29.0364 87.2212 28.9256 87.3672 28.8681 87.5355L27.7878 87.3821C27.873 87.0838 28.0137 86.8345 28.2097 86.6342C28.4057 86.4318 28.6454 86.2805 28.9288 86.1804C29.2122 86.0781 29.5254 86.027 29.8684 86.027C30.1049 86.027 30.3404 86.0547 30.5748 86.1101C30.8091 86.1655 31.0233 86.2571 31.2172 86.3849C31.411 86.5107 31.5666 86.6822 31.6838 86.8995C31.8031 87.1168 31.8627 87.3885 31.8627 87.7145V91H30.7505V90.3256H30.7122C30.6419 90.462 30.5428 90.5898 30.415 90.7092C30.2892 90.8263 30.1305 90.9212 29.9387 90.9936C29.7491 91.0639 29.5265 91.0991 29.2708 91.0991ZM29.5712 90.2489C29.8034 90.2489 30.0048 90.2031 30.1752 90.1115C30.3457 90.0178 30.4767 89.8942 30.5684 89.7408C30.6621 89.5874 30.709 89.4201 30.709 89.239V88.6605C30.6728 88.6903 30.611 88.718 30.5236 88.7436C30.4384 88.7692 30.3425 88.7915 30.236 88.8107C30.1294 88.8299 30.024 88.8469 29.9196 88.8619C29.8152 88.8768 29.7246 88.8896 29.6479 88.9002C29.4753 88.9237 29.3208 88.962 29.1845 89.0153C29.0481 89.0685 28.9405 89.1431 28.8617 89.239C28.7828 89.3327 28.7434 89.4542 28.7434 89.6033C28.7434 89.8164 28.8212 89.9773 28.9767 90.0859C29.1323 90.1946 29.3304 90.2489 29.5712 90.2489ZM33.0261 91V86.0909H34.1479V86.9091H34.199C34.2885 86.6257 34.4419 86.4073 34.6593 86.2539C34.8787 86.0984 35.1291 86.0206 35.4103 86.0206C35.4743 86.0206 35.5456 86.0238 35.6245 86.0302C35.7054 86.0344 35.7725 86.0419 35.8258 86.0526V87.1168C35.7768 87.0998 35.699 87.0849 35.5925 87.0721C35.4881 87.0572 35.3869 87.0497 35.2889 87.0497C35.0779 87.0497 34.8883 87.0955 34.72 87.1871C34.5538 87.2766 34.4228 87.4013 34.3269 87.5611C34.231 87.7209 34.1831 87.9052 34.1831 88.114V91H33.0261ZM39.3095 86.0909V86.9858H36.4874V86.0909H39.3095ZM37.1841 84.9148H38.3411V89.5234C38.3411 89.679 38.3645 89.7983 38.4114 89.8814C38.4604 89.9624 38.5243 90.0178 38.6032 90.0476C38.682 90.0774 38.7694 90.0923 38.8652 90.0923C38.9377 90.0923 39.0037 90.087 39.0634 90.0763C39.1252 90.0657 39.1721 90.0561 39.204 90.0476L39.399 90.9521C39.3372 90.9734 39.2488 90.9968 39.1337 91.0224C39.0208 91.0479 38.8823 91.0629 38.7182 91.0671C38.4284 91.0756 38.1674 91.032 37.9352 90.9361C37.7029 90.8381 37.5186 90.6868 37.3823 90.4822C37.248 90.2777 37.182 90.022 37.1841 89.7152V84.9148ZM44.7787 91H42.5606V84.4545H44.8234C45.4733 84.4545 46.0315 84.5856 46.4981 84.8477C46.9669 85.1076 47.327 85.4815 47.5784 85.9695C47.8298 86.4574 47.9555 87.0412 47.9555 87.7209C47.9555 88.4027 47.8287 88.9886 47.5752 89.4787C47.3238 89.9687 46.9605 90.3448 46.4854 90.6069C46.0123 90.869 45.4434 91 44.7787 91ZM43.7464 89.9741H44.7211C45.1771 89.9741 45.5574 89.891 45.8621 89.7248C46.1668 89.5565 46.3959 89.3061 46.5493 88.9737C46.7027 88.6392 46.7794 88.2216 46.7794 87.7209C46.7794 87.2202 46.7027 86.8047 46.5493 86.4744C46.3959 86.142 46.1689 85.8938 45.8685 85.7298C45.5702 85.5636 45.1995 85.4805 44.7563 85.4805H43.7464V89.9741ZM50.4436 91.0991C50.1325 91.0991 49.8524 91.0437 49.6031 90.9329C49.3559 90.82 49.1599 90.6538 49.015 90.4343C48.8722 90.2148 48.8009 89.9442 48.8009 89.6225C48.8009 89.3455 48.852 89.1165 48.9543 88.9354C49.0566 88.7543 49.1961 88.6094 49.373 88.5007C49.5498 88.392 49.749 88.31 49.9706 88.2546C50.1943 88.1971 50.4255 88.1555 50.6642 88.13C50.9518 88.1001 51.1851 88.0735 51.3641 88.0501C51.5431 88.0245 51.673 87.9862 51.754 87.935C51.8371 87.8817 51.8786 87.7997 51.8786 87.6889V87.6697C51.8786 87.429 51.8073 87.2425 51.6645 87.1104C51.5218 86.9783 51.3161 86.9123 51.0477 86.9123C50.7643 86.9123 50.5395 86.9741 50.3733 87.0977C50.2093 87.2212 50.0985 87.3672 50.0409 87.5355L48.9607 87.3821C49.0459 87.0838 49.1865 86.8345 49.3825 86.6342C49.5786 86.4318 49.8183 86.2805 50.1017 86.1804C50.385 86.0781 50.6982 86.027 51.0413 86.027C51.2778 86.027 51.5132 86.0547 51.7476 86.1101C51.982 86.1655 52.1961 86.2571 52.39 86.3849C52.5839 86.5107 52.7394 86.6822 52.8566 86.8995C52.9759 87.1168 53.0356 87.3885 53.0356 87.7145V91H51.9234V90.3256H51.885C51.8147 90.462 51.7156 90.5898 51.5878 90.7092C51.4621 90.8263 51.3034 90.9212 51.1116 90.9936C50.922 91.0639 50.6993 91.0991 50.4436 91.0991ZM50.7441 90.2489C50.9763 90.2489 51.1776 90.2031 51.3481 90.1115C51.5186 90.0178 51.6496 89.8942 51.7412 89.7408C51.835 89.5874 51.8818 89.4201 51.8818 89.239V88.6605C51.8456 88.6903 51.7838 88.718 51.6965 88.7436C51.6112 88.7692 51.5154 88.7915 51.4088 88.8107C51.3023 88.8299 51.1968 88.8469 51.0924 88.8619C50.988 88.8768 50.8975 88.8896 50.8208 88.9002C50.6482 88.9237 50.4937 88.962 50.3573 89.0153C50.221 89.0685 50.1134 89.1431 50.0345 89.239C49.9557 89.3327 49.9163 89.4542 49.9163 89.6033C49.9163 89.8164 49.9941 89.9773 50.1496 90.0859C50.3051 90.1946 50.5033 90.2489 50.7441 90.2489ZM56.6503 86.0909V86.9858H53.8282V86.0909H56.6503ZM54.5249 84.9148H55.6819V89.5234C55.6819 89.679 55.7053 89.7983 55.7522 89.8814C55.8012 89.9624 55.8651 90.0178 55.944 90.0476C56.0228 90.0774 56.1102 90.0923 56.2061 90.0923C56.2785 90.0923 56.3445 90.087 56.4042 90.0763C56.466 90.0657 56.5129 90.0561 56.5448 90.0476L56.7398 90.9521C56.678 90.9734 56.5896 90.9968 56.4745 91.0224C56.3616 91.0479 56.2231 91.0629 56.059 91.0671C55.7693 91.0756 55.5083 91.032 55.276 90.9361C55.0438 90.8381 54.8595 90.6868 54.7231 90.4822C54.5889 90.2777 54.5228 90.022 54.5249 89.7152V84.9148ZM59.7385 91.0959C59.2463 91.0959 58.8212 90.9936 58.4632 90.7891C58.1074 90.5824 57.8336 90.2905 57.6419 89.9134C57.4501 89.5341 57.3542 89.0877 57.3542 88.5742C57.3542 88.0692 57.4501 87.6261 57.6419 87.2447C57.8358 86.8612 58.1064 86.5629 58.4537 86.3498C58.801 86.1346 59.209 86.027 59.6777 86.027C59.9803 86.027 60.2658 86.076 60.5343 86.174C60.8049 86.2699 61.0435 86.419 61.2502 86.6214C61.459 86.8239 61.623 87.0817 61.7424 87.3949C61.8617 87.706 61.9213 88.0767 61.9213 88.5071V88.8619H57.8975V88.082H60.8123C60.8102 87.8604 60.7623 87.6634 60.6685 87.4908C60.5748 87.3161 60.4437 87.1786 60.2754 87.0785C60.1092 86.9783 59.9153 86.9283 59.6937 86.9283C59.4572 86.9283 59.2495 86.9858 59.0705 87.1009C58.8915 87.2138 58.752 87.3629 58.6518 87.5483C58.5538 87.7315 58.5037 87.9329 58.5016 88.1523V88.8331C58.5016 89.1186 58.5538 89.3636 58.6582 89.5682C58.7626 89.7706 58.9086 89.9261 59.0961 90.0348C59.2836 90.1413 59.503 90.1946 59.7544 90.1946C59.9228 90.1946 60.0751 90.1712 60.2115 90.1243C60.3478 90.0753 60.4661 90.0039 60.5662 89.9102C60.6664 89.8164 60.742 89.7003 60.7931 89.5618L61.8734 89.6832C61.8052 89.9687 61.6752 90.218 61.4835 90.4311C61.2939 90.642 61.051 90.8061 60.7548 90.9233C60.4586 91.0384 60.1199 91.0959 59.7385 91.0959ZM63.6128 91.0703C63.4189 91.0703 63.2528 91.0021 63.1143 90.8658C62.9758 90.7294 62.9076 90.5632 62.9097 90.3672C62.9076 90.1754 62.9758 90.0114 63.1143 89.875C63.2528 89.7386 63.4189 89.6705 63.6128 89.6705C63.8003 89.6705 63.9633 89.7386 64.1018 89.875C64.2425 90.0114 64.3138 90.1754 64.316 90.3672C64.3138 90.4972 64.2797 90.6154 64.2137 90.7219C64.1498 90.8285 64.0645 90.9137 63.958 90.9776C63.8536 91.0394 63.7385 91.0703 63.6128 91.0703ZM63.6128 87.5675C63.4189 87.5675 63.2528 87.4993 63.1143 87.3629C62.9758 87.2244 62.9076 87.0582 62.9097 86.8643C62.9076 86.6726 62.9758 86.5085 63.1143 86.3722C63.2528 86.2337 63.4189 86.1644 63.6128 86.1644C63.8003 86.1644 63.9633 86.2337 64.1018 86.3722C64.2425 86.5085 64.3138 86.6726 64.316 86.8643C64.3138 86.9922 64.2797 87.1094 64.2137 87.2159C64.1498 87.3224 64.0645 87.4077 63.958 87.4716C63.8536 87.5355 63.7385 87.5675 63.6128 87.5675Z" fill="black"/>
<path d="M106.244 96.4545V103H105.058V97.6083H105.02L103.489 98.5863V97.4996L105.116 96.4545H106.244ZM110.591 96.1477L108.481 103.984H107.468L109.577 96.1477H110.591ZM113.735 103.125C113.209 103.125 112.757 102.991 112.38 102.725C112.005 102.457 111.717 102.07 111.514 101.565C111.314 101.058 111.214 100.447 111.214 99.7337C111.216 99.0199 111.317 98.4126 111.517 97.9119C111.72 97.4091 112.009 97.0256 112.384 96.7614C112.761 96.4972 113.211 96.3651 113.735 96.3651C114.26 96.3651 114.71 96.4972 115.087 96.7614C115.464 97.0256 115.753 97.4091 115.953 97.9119C116.156 98.4148 116.257 99.022 116.257 99.7337C116.257 100.45 116.156 101.061 115.953 101.568C115.753 102.073 115.464 102.459 115.087 102.725C114.712 102.991 114.262 103.125 113.735 103.125ZM113.735 102.124C114.145 102.124 114.467 101.923 114.704 101.52C114.942 101.115 115.062 100.52 115.062 99.7337C115.062 99.2138 115.007 98.777 114.899 98.4233C114.79 98.0696 114.637 97.8033 114.439 97.6243C114.24 97.4432 114.006 97.3526 113.735 97.3526C113.328 97.3526 113.007 97.555 112.77 97.9599C112.534 98.3626 112.414 98.9538 112.412 99.7337C112.41 100.256 112.462 100.695 112.569 101.05C112.678 101.406 112.831 101.675 113.029 101.856C113.227 102.035 113.463 102.124 113.735 102.124ZM119.591 96.3651C119.905 96.3672 120.209 96.4226 120.505 96.5312C120.804 96.6378 121.072 96.8125 121.311 97.0554C121.549 97.2962 121.739 97.619 121.88 98.0238C122.02 98.4286 122.091 98.9293 122.091 99.5259C122.093 100.088 122.033 100.591 121.912 101.034C121.792 101.475 121.621 101.848 121.397 102.153C121.173 102.458 120.904 102.69 120.589 102.85C120.273 103.01 119.918 103.089 119.524 103.089C119.111 103.089 118.744 103.009 118.425 102.847C118.107 102.685 117.851 102.463 117.655 102.182C117.459 101.901 117.338 101.579 117.293 101.217H118.46C118.52 101.477 118.641 101.683 118.824 101.837C119.01 101.988 119.243 102.064 119.524 102.064C119.978 102.064 120.328 101.866 120.573 101.472C120.818 101.078 120.94 100.531 120.94 99.8295H120.895C120.791 100.017 120.656 100.179 120.489 100.315C120.323 100.45 120.135 100.553 119.924 100.625C119.715 100.698 119.493 100.734 119.259 100.734C118.875 100.734 118.53 100.642 118.223 100.459C117.919 100.276 117.677 100.025 117.498 99.7049C117.321 99.3853 117.232 99.0199 117.229 98.6087C117.229 98.1825 117.328 97.8001 117.524 97.4613C117.722 97.1204 117.998 96.8519 118.351 96.6559C118.705 96.4577 119.118 96.3608 119.591 96.3651ZM119.595 97.3239C119.364 97.3239 119.157 97.3803 118.971 97.4933C118.788 97.604 118.643 97.7553 118.537 97.9471C118.432 98.1367 118.38 98.3487 118.38 98.5831C118.382 98.8153 118.434 99.0263 118.537 99.2159C118.641 99.4055 118.783 99.5558 118.962 99.6665C119.143 99.7773 119.35 99.8327 119.582 99.8327C119.754 99.8327 119.915 99.7997 120.064 99.7337C120.214 99.6676 120.343 99.576 120.454 99.4588C120.567 99.3395 120.655 99.2042 120.716 99.0529C120.78 98.9016 120.811 98.7418 120.809 98.5735C120.809 98.3498 120.756 98.1431 120.649 97.9535C120.545 97.7638 120.401 97.6115 120.218 97.4964C120.037 97.3814 119.829 97.3239 119.595 97.3239ZM125.84 96.1477L123.73 103.984H122.717L124.826 96.1477H125.84ZM126.565 103V102.143L128.837 99.9158C129.055 99.6964 129.236 99.5014 129.381 99.331C129.526 99.1605 129.634 98.9954 129.707 98.8356C129.779 98.6758 129.815 98.5053 129.815 98.3242C129.815 98.1175 129.769 97.9407 129.675 97.7937C129.581 97.6445 129.452 97.5295 129.288 97.4485C129.124 97.3675 128.938 97.3271 128.729 97.3271C128.514 97.3271 128.325 97.3718 128.163 97.4613C128.001 97.5487 127.875 97.6733 127.786 97.8352C127.699 97.9972 127.655 98.19 127.655 98.4137H126.527C126.527 97.9982 126.622 97.6371 126.811 97.3303C127.001 97.0234 127.262 96.7859 127.594 96.6175C127.929 96.4492 128.312 96.3651 128.745 96.3651C129.184 96.3651 129.569 96.4471 129.902 96.6112C130.234 96.7752 130.492 97 130.675 97.2855C130.861 97.571 130.953 97.897 130.953 98.2635C130.953 98.5085 130.906 98.7493 130.813 98.9858C130.719 99.2223 130.554 99.4844 130.317 99.772C130.083 100.06 129.754 100.408 129.33 100.817L128.201 101.964V102.009H131.052V103H126.565ZM134.574 103.125C134.048 103.125 133.596 102.991 133.219 102.725C132.844 102.457 132.555 102.07 132.353 101.565C132.153 101.058 132.053 100.447 132.053 99.7337C132.055 99.0199 132.156 98.4126 132.356 97.9119C132.559 97.4091 132.847 97.0256 133.222 96.7614C133.6 96.4972 134.05 96.3651 134.574 96.3651C135.098 96.3651 135.549 96.4972 135.926 96.7614C136.303 97.0256 136.592 97.4091 136.792 97.9119C136.995 98.4148 137.096 99.022 137.096 99.7337C137.096 100.45 136.995 101.061 136.792 101.568C136.592 102.073 136.303 102.459 135.926 102.725C135.551 102.991 135.101 103.125 134.574 103.125ZM134.574 102.124C134.983 102.124 135.306 101.923 135.543 101.52C135.781 101.115 135.901 100.52 135.901 99.7337C135.901 99.2138 135.846 98.777 135.738 98.4233C135.629 98.0696 135.476 97.8033 135.277 97.6243C135.079 97.4432 134.845 97.3526 134.574 97.3526C134.167 97.3526 133.846 97.555 133.609 97.9599C133.373 98.3626 133.253 98.9538 133.251 99.7337C133.249 100.256 133.301 100.695 133.408 101.05C133.516 101.406 133.67 101.675 133.868 101.856C134.066 102.035 134.302 102.124 134.574 102.124ZM138.158 103V102.143L140.43 99.9158C140.648 99.6964 140.829 99.5014 140.974 99.331C141.118 99.1605 141.227 98.9954 141.3 98.8356C141.372 98.6758 141.408 98.5053 141.408 98.3242C141.408 98.1175 141.361 97.9407 141.268 97.7937C141.174 97.6445 141.045 97.5295 140.881 97.4485C140.717 97.3675 140.53 97.3271 140.322 97.3271C140.106 97.3271 139.918 97.3718 139.756 97.4613C139.594 97.5487 139.468 97.6733 139.379 97.8352C139.291 97.9972 139.248 98.19 139.248 98.4137H138.119C138.119 97.9982 138.214 97.6371 138.404 97.3303C138.594 97.0234 138.855 96.7859 139.187 96.6175C139.521 96.4492 139.905 96.3651 140.338 96.3651C140.776 96.3651 141.162 96.4471 141.494 96.6112C141.827 96.7752 142.085 97 142.268 97.2855C142.453 97.571 142.546 97.897 142.546 98.2635C142.546 98.5085 142.499 98.7493 142.405 98.9858C142.312 99.2223 142.146 99.4844 141.91 99.772C141.676 100.06 141.346 100.408 140.922 100.817L139.794 101.964V102.009H142.645V103H138.158ZM146.023 103.089C145.597 103.089 145.216 103.01 144.879 102.85C144.542 102.688 144.275 102.466 144.077 102.185C143.881 101.904 143.776 101.582 143.764 101.22H144.914C144.936 101.488 145.052 101.708 145.263 101.878C145.474 102.047 145.727 102.131 146.023 102.131C146.256 102.131 146.462 102.077 146.643 101.971C146.824 101.864 146.967 101.716 147.072 101.527C147.176 101.337 147.227 101.121 147.225 100.878C147.227 100.631 147.175 100.411 147.068 100.219C146.962 100.028 146.816 99.8775 146.631 99.7688C146.445 99.658 146.232 99.6026 145.991 99.6026C145.795 99.6005 145.602 99.6367 145.413 99.7113C145.223 99.7859 145.073 99.8839 144.962 100.005L143.892 99.8295L144.233 96.4545H148.03V97.4453H145.215L145.026 99.1808H145.064C145.186 99.038 145.357 98.9197 145.579 98.826C145.801 98.7301 146.044 98.6822 146.308 98.6822C146.704 98.6822 147.058 98.7759 147.369 98.9634C147.68 99.1488 147.925 99.4045 148.104 99.7305C148.283 100.056 148.372 100.429 148.372 100.849C148.372 101.282 148.272 101.667 148.072 102.006C147.874 102.343 147.598 102.608 147.244 102.802C146.893 102.994 146.486 103.089 146.023 103.089Z" fill="#344050"/>
<path d="M103.717 92V84.7273H108.447V85.8317H105.035V87.8061H108.202V88.9105H105.035V90.8956H108.476V92H103.717ZM111.02 88.804V92H109.735V86.5455H110.963V87.4723H111.027C111.153 87.1669 111.353 86.9242 111.627 86.7443C111.904 86.5644 112.247 86.4744 112.654 86.4744C113.03 86.4744 113.358 86.5549 113.637 86.7159C113.919 86.8769 114.137 87.1101 114.291 87.4155C114.447 87.7209 114.524 88.0914 114.522 88.527V92H113.236V88.7259C113.236 88.3613 113.141 88.076 112.952 87.87C112.765 87.6641 112.506 87.5611 112.174 87.5611C111.949 87.5611 111.749 87.6108 111.574 87.7102C111.401 87.8073 111.265 87.9482 111.166 88.1328C111.069 88.3175 111.02 88.5412 111.02 88.804ZM117.853 92.0959C117.424 92.0959 117.041 91.9858 116.702 91.7656C116.364 91.5455 116.096 91.2259 115.9 90.8068C115.703 90.3878 115.605 89.8788 115.605 89.2798C115.605 88.6738 115.704 88.1624 115.903 87.7457C116.104 87.3267 116.375 87.0107 116.716 86.7976C117.057 86.5821 117.437 86.4744 117.856 86.4744C118.176 86.4744 118.439 86.5289 118.645 86.6378C118.85 86.7443 119.014 86.8733 119.135 87.0249C119.255 87.174 119.349 87.3149 119.415 87.4474H119.468V84.7273H120.757V92H119.493V91.1406H119.415C119.349 91.2732 119.253 91.4141 119.127 91.5632C119.002 91.71 118.836 91.8355 118.63 91.9396C118.424 92.0438 118.165 92.0959 117.853 92.0959ZM118.211 91.0412C118.484 91.0412 118.716 90.9678 118.907 90.821C119.099 90.6719 119.245 90.4647 119.344 90.1996C119.444 89.9344 119.493 89.6255 119.493 89.2727C119.493 88.92 119.444 88.6134 119.344 88.353C119.247 88.0926 119.103 87.8902 118.911 87.7457C118.721 87.6013 118.488 87.5291 118.211 87.5291C117.925 87.5291 117.686 87.6037 117.494 87.7528C117.302 87.902 117.158 88.108 117.061 88.3707C116.964 88.6335 116.915 88.9342 116.915 89.2727C116.915 89.6136 116.964 89.9179 117.061 90.1854C117.16 90.4505 117.306 90.66 117.498 90.8139C117.692 90.9654 117.93 91.0412 118.211 91.0412ZM127.129 92H124.665V84.7273H127.179C127.901 84.7273 128.521 84.8729 129.04 85.1641C129.56 85.4529 129.961 85.8684 130.24 86.4105C130.519 86.9527 130.659 87.6013 130.659 88.3565C130.659 89.1141 130.518 89.7652 130.236 90.3097C129.957 90.8542 129.553 91.272 129.025 91.5632C128.5 91.8544 127.868 92 127.129 92ZM125.982 90.8601H127.065C127.572 90.8601 127.994 90.7678 128.333 90.5831C128.671 90.3961 128.926 90.1179 129.096 89.7486C129.267 89.3769 129.352 88.9129 129.352 88.3565C129.352 87.8002 129.267 87.3385 129.096 86.9716C128.926 86.6023 128.674 86.3265 128.34 86.1442C128.009 85.9595 127.597 85.8672 127.104 85.8672H125.982V90.8601ZM133.423 92.1101C133.078 92.1101 132.767 92.0485 132.49 91.9254C132.215 91.8 131.997 91.6153 131.836 91.3714C131.677 91.1276 131.598 90.8269 131.598 90.4695C131.598 90.1617 131.655 89.9072 131.769 89.706C131.882 89.5047 132.037 89.3438 132.234 89.223C132.43 89.1023 132.652 89.0111 132.898 88.9496C133.146 88.8857 133.403 88.8395 133.669 88.8111C133.988 88.7779 134.247 88.7483 134.446 88.7223C134.645 88.6939 134.789 88.6513 134.879 88.5945C134.972 88.5353 135.018 88.4441 135.018 88.321V88.2997C135.018 88.0322 134.939 87.825 134.78 87.6783C134.621 87.5315 134.393 87.4581 134.095 87.4581C133.78 87.4581 133.53 87.5268 133.345 87.6641C133.163 87.8014 133.04 87.9635 132.976 88.1506L131.776 87.9801C131.87 87.6487 132.027 87.3717 132.244 87.1491C132.462 86.9242 132.729 86.7562 133.044 86.6449C133.358 86.5312 133.706 86.4744 134.088 86.4744C134.35 86.4744 134.612 86.5052 134.872 86.5668C135.133 86.6283 135.371 86.7301 135.586 86.8722C135.802 87.0118 135.974 87.2024 136.105 87.4439C136.237 87.6854 136.303 87.9872 136.303 88.3494V92H135.068V91.2507H135.025C134.947 91.4022 134.837 91.5443 134.695 91.6768C134.555 91.8071 134.379 91.9124 134.166 91.9929C133.955 92.071 133.708 92.1101 133.423 92.1101ZM133.757 91.1655C134.015 91.1655 134.239 91.1146 134.428 91.0128C134.618 90.9086 134.763 90.7713 134.865 90.6009C134.969 90.4304 135.021 90.2446 135.021 90.0433V89.4006C134.981 89.4337 134.913 89.4645 134.816 89.4929C134.721 89.5213 134.614 89.5462 134.496 89.5675C134.378 89.5888 134.26 89.6077 134.144 89.6243C134.028 89.6409 133.928 89.6551 133.843 89.6669C133.651 89.6929 133.479 89.7356 133.328 89.7947C133.176 89.8539 133.057 89.9368 132.969 90.0433C132.881 90.1475 132.838 90.2824 132.838 90.4482C132.838 90.6849 132.924 90.8636 133.097 90.9844C133.27 91.1051 133.49 91.1655 133.757 91.1655ZM140.32 86.5455V87.5398H137.184V86.5455H140.32ZM137.958 85.2386H139.244V90.3594C139.244 90.5322 139.27 90.6648 139.322 90.7571C139.376 90.8471 139.447 90.9086 139.535 90.9418C139.623 90.9749 139.72 90.9915 139.826 90.9915C139.907 90.9915 139.98 90.9856 140.046 90.9737C140.115 90.9619 140.167 90.9512 140.203 90.9418L140.419 91.9467C140.351 91.9704 140.252 91.9964 140.124 92.0249C139.999 92.0533 139.845 92.0698 139.663 92.0746C139.341 92.084 139.051 92.0355 138.793 91.929C138.535 91.8201 138.33 91.652 138.178 91.4247C138.029 91.1974 137.956 90.9134 137.958 90.5724V85.2386ZM143.751 92.1065C143.204 92.1065 142.732 91.9929 142.334 91.7656C141.939 91.536 141.635 91.2116 141.422 90.7926C141.208 90.3712 141.102 89.8752 141.102 89.3047C141.102 88.7436 141.208 88.2512 141.422 87.8274C141.637 87.4013 141.938 87.0698 142.324 86.8331C142.709 86.594 143.163 86.4744 143.684 86.4744C144.02 86.4744 144.337 86.5289 144.635 86.6378C144.936 86.7443 145.201 86.91 145.431 87.1349C145.663 87.3598 145.845 87.6463 145.978 87.9943C146.11 88.34 146.176 88.7519 146.176 89.2301V89.6243H141.706V88.7578H144.944C144.942 88.5116 144.889 88.2926 144.784 88.1009C144.68 87.9067 144.535 87.754 144.348 87.6428C144.163 87.5315 143.948 87.4759 143.701 87.4759C143.439 87.4759 143.208 87.5398 143.009 87.6676C142.81 87.7931 142.655 87.9588 142.544 88.1648C142.435 88.3684 142.379 88.5921 142.377 88.8359V89.5923C142.377 89.9096 142.435 90.1818 142.551 90.4091C142.667 90.634 142.829 90.8068 143.037 90.9276C143.246 91.0459 143.489 91.1051 143.769 91.1051C143.956 91.1051 144.125 91.0791 144.277 91.027C144.428 90.9725 144.56 90.8932 144.671 90.7891C144.782 90.6849 144.866 90.5559 144.923 90.402L146.123 90.5369C146.047 90.8542 145.903 91.1312 145.69 91.3679C145.479 91.6023 145.209 91.7846 144.88 91.9148C144.551 92.0426 144.175 92.1065 143.751 92.1065ZM148.056 92.0781C147.84 92.0781 147.656 92.0024 147.502 91.8509C147.348 91.6993 147.272 91.5147 147.275 91.2969C147.272 91.0838 147.348 90.9015 147.502 90.75C147.656 90.5985 147.84 90.5227 148.056 90.5227C148.264 90.5227 148.445 90.5985 148.599 90.75C148.756 90.9015 148.835 91.0838 148.837 91.2969C148.835 91.4413 148.797 91.5727 148.724 91.6911C148.653 91.8094 148.558 91.9041 148.439 91.9751C148.323 92.0438 148.196 92.0781 148.056 92.0781ZM148.056 88.1861C147.84 88.1861 147.656 88.1103 147.502 87.9588C147.348 87.8049 147.272 87.6203 147.275 87.4048C147.272 87.1918 147.348 87.0095 147.502 86.858C147.656 86.7041 147.84 86.6271 148.056 86.6271C148.264 86.6271 148.445 86.7041 148.599 86.858C148.756 87.0095 148.835 87.1918 148.837 87.4048C148.835 87.5469 148.797 87.6771 148.724 87.7955C148.653 87.9138 148.558 88.0085 148.439 88.0795C148.323 88.1506 148.196 88.1861 148.056 88.1861Z" fill="black"/>
<path d="M18.6456 55V48.4545H21.1001C21.603 48.4545 22.0249 48.5419 22.3658 48.7166C22.7088 48.8913 22.9677 49.1364 23.1424 49.4517C23.3192 49.7649 23.4077 50.1303 23.4077 50.5479C23.4077 50.9677 23.3182 51.332 23.1392 51.641C22.9624 51.9478 22.7013 52.1854 22.3562 52.3537C22.011 52.5199 21.587 52.603 21.0842 52.603H19.3359V51.6186H20.9244C21.2184 51.6186 21.4592 51.5781 21.6467 51.4972C21.8342 51.4141 21.9727 51.2937 22.0621 51.136C22.1538 50.9762 22.1996 50.7802 22.1996 50.5479C22.1996 50.3157 22.1538 50.1175 22.0621 49.9535C21.9705 49.7873 21.831 49.6616 21.6435 49.5763C21.456 49.489 21.2141 49.4453 20.918 49.4453H19.8313V55H18.6456ZM22.027 52.0341L23.6474 55H22.3242L20.7326 52.0341H22.027ZM26.551 55.0959C26.0588 55.0959 25.6337 54.9936 25.2757 54.7891C24.9199 54.5824 24.6461 54.2905 24.4544 53.9134C24.2626 53.5341 24.1667 53.0877 24.1667 52.5742C24.1667 52.0692 24.2626 51.6261 24.4544 51.2447C24.6483 50.8612 24.9189 50.5629 25.2662 50.3498C25.6135 50.1346 26.0215 50.027 26.4902 50.027C26.7928 50.027 27.0783 50.076 27.3468 50.174C27.6174 50.2699 27.856 50.419 28.0627 50.6214C28.2715 50.8239 28.4355 51.0817 28.5549 51.3949C28.6742 51.706 28.7338 52.0767 28.7338 52.5071V52.8619H24.71V52.082H27.6248C27.6227 51.8604 27.5748 51.6634 27.481 51.4908C27.3873 51.3161 27.2562 51.1786 27.0879 51.0785C26.9217 50.9783 26.7278 50.9283 26.5062 50.9283C26.2697 50.9283 26.062 50.9858 25.883 51.1009C25.704 51.2138 25.5645 51.3629 25.4643 51.5483C25.3663 51.7315 25.3162 51.9329 25.3141 52.1523V52.8331C25.3141 53.1186 25.3663 53.3636 25.4707 53.5682C25.5751 53.7706 25.7211 53.9261 25.9086 54.0348C26.0961 54.1413 26.3155 54.1946 26.5669 54.1946C26.7353 54.1946 26.8876 54.1712 27.024 54.1243C27.1603 54.0753 27.2786 54.0039 27.3787 53.9102C27.4789 53.8164 27.5545 53.7003 27.6056 53.5618L28.6859 53.6832C28.6177 53.9687 28.4877 54.218 28.296 54.4311C28.1064 54.642 27.8635 54.8061 27.5673 54.9233C27.2711 55.0384 26.9324 55.0959 26.551 55.0959ZM31.8476 56.9432C31.4321 56.9432 31.0752 56.8867 30.7769 56.7738C30.4786 56.663 30.2389 56.5138 30.0578 56.3263C29.8767 56.1388 29.751 55.9311 29.6807 55.7031L30.7226 55.4506C30.7694 55.5465 30.8376 55.6413 30.9271 55.7351C31.0166 55.831 31.137 55.9098 31.2883 55.9716C31.4417 56.0355 31.6345 56.0675 31.8667 56.0675C32.1949 56.0675 32.4665 55.9876 32.6817 55.8278C32.8969 55.6701 33.0045 55.4102 33.0045 55.0479V54.1179H32.947C32.8873 54.2372 32.8 54.3597 32.6849 54.4854C32.572 54.6112 32.4218 54.7166 32.2343 54.8018C32.0489 54.8871 31.8156 54.9297 31.5344 54.9297C31.1572 54.9297 30.8153 54.8413 30.5084 54.6644C30.2037 54.4854 29.9608 54.2191 29.7797 53.8654C29.6008 53.5096 29.5113 53.0643 29.5113 52.5295C29.5113 51.9904 29.6008 51.5355 29.7797 51.1648C29.9608 50.7919 30.2048 50.5096 30.5116 50.3178C30.8184 50.1239 31.1604 50.027 31.5376 50.027C31.8252 50.027 32.0617 50.076 32.2471 50.174C32.4346 50.2699 32.5837 50.386 32.6945 50.5224C32.8053 50.6566 32.8895 50.7834 32.947 50.9027H33.0109V50.0909H34.1519V55.0799C34.1519 55.4996 34.0518 55.8469 33.8515 56.1218C33.6512 56.3967 33.3774 56.6023 33.0301 56.7386C32.6828 56.875 32.2886 56.9432 31.8476 56.9432ZM31.8572 54.022C32.1022 54.022 32.311 53.9624 32.4836 53.843C32.6562 53.7237 32.7872 53.5522 32.8767 53.3285C32.9662 53.1048 33.0109 52.8363 33.0109 52.5231C33.0109 52.2141 32.9662 51.9435 32.8767 51.7113C32.7893 51.479 32.6594 51.299 32.4868 51.1712C32.3163 51.0412 32.1064 50.9762 31.8572 50.9762C31.5993 50.9762 31.3841 51.0433 31.2116 51.1776C31.039 51.3118 30.909 51.4961 30.8216 51.7305C30.7343 51.9627 30.6906 52.2269 30.6906 52.5231C30.6906 52.8235 30.7343 53.0866 30.8216 53.3125C30.9111 53.5362 31.0422 53.7109 31.2148 53.8366C31.3895 53.9602 31.6036 54.022 31.8572 54.022ZM35.3376 55V50.0909H36.4946V55H35.3376ZM35.9193 49.3942C35.7361 49.3942 35.5784 49.3335 35.4463 49.212C35.3142 49.0884 35.2481 48.9403 35.2481 48.7678C35.2481 48.593 35.3142 48.445 35.4463 48.3235C35.5784 48.1999 35.7361 48.1381 35.9193 48.1381C36.1047 48.1381 36.2623 48.1999 36.3923 48.3235C36.5244 48.445 36.5905 48.593 36.5905 48.7678C36.5905 48.9403 36.5244 49.0884 36.3923 49.212C36.2623 49.3335 36.1047 49.3942 35.9193 49.3942ZM39.8256 55.0959C39.3462 55.0959 38.9308 54.9904 38.5792 54.7795C38.2276 54.5685 37.9549 54.2734 37.761 53.8942C37.5692 53.5149 37.4734 53.0717 37.4734 52.5646C37.4734 52.0575 37.5692 51.6133 37.761 51.2319C37.9549 50.8505 38.2276 50.5543 38.5792 50.3434C38.9308 50.1325 39.3462 50.027 39.8256 50.027C40.305 50.027 40.7205 50.1325 41.0721 50.3434C41.4237 50.5543 41.6953 50.8505 41.8871 51.2319C42.081 51.6133 42.1779 52.0575 42.1779 52.5646C42.1779 53.0717 42.081 53.5149 41.8871 53.8942C41.6953 54.2734 41.4237 54.5685 41.0721 54.7795C40.7205 54.9904 40.305 55.0959 39.8256 55.0959ZM39.832 54.169C40.092 54.169 40.3093 54.0977 40.484 53.9549C40.6587 53.81 40.7887 53.6161 40.8739 53.3732C40.9613 53.1303 41.005 52.8597 41.005 52.5614C41.005 52.261 40.9613 51.9893 40.8739 51.7464C40.7887 51.5014 40.6587 51.3065 40.484 51.1616C40.3093 51.0167 40.092 50.9442 39.832 50.9442C39.5657 50.9442 39.3441 51.0167 39.1673 51.1616C38.9925 51.3065 38.8615 51.5014 38.7741 51.7464C38.6889 51.9893 38.6463 52.261 38.6463 52.5614C38.6463 52.8597 38.6889 53.1303 38.7741 53.3732C38.8615 53.6161 38.9925 53.81 39.1673 53.9549C39.3441 54.0977 39.5657 54.169 39.832 54.169ZM44.3169 52.1236V55H43.1599V50.0909H44.2657V50.9251H44.3232C44.4362 50.6502 44.6162 50.4318 44.8634 50.2699C45.1127 50.108 45.4205 50.027 45.787 50.027C46.1258 50.027 46.4209 50.0994 46.6723 50.2443C46.9259 50.3892 47.1219 50.5991 47.2604 50.8739C47.401 51.1488 47.4703 51.4822 47.4681 51.8743V55H46.3112V52.0533C46.3112 51.7251 46.2259 51.4684 46.0555 51.283C45.8872 51.0977 45.6539 51.005 45.3556 51.005C45.1531 51.005 44.9731 51.0497 44.8154 51.1392C44.6599 51.2266 44.5374 51.3533 44.4479 51.5195C44.3605 51.6857 44.3169 51.8871 44.3169 52.1236ZM49.357 55.0703C49.1631 55.0703 48.9969 55.0021 48.8584 54.8658C48.7199 54.7294 48.6517 54.5632 48.6539 54.3672C48.6517 54.1754 48.7199 54.0114 48.8584 53.875C48.9969 53.7386 49.1631 53.6705 49.357 53.6705C49.5445 53.6705 49.7075 53.7386 49.846 53.875C49.9866 54.0114 50.058 54.1754 50.0601 54.3672C50.058 54.4972 50.0239 54.6154 49.9578 54.7219C49.8939 54.8285 49.8087 54.9137 49.7021 54.9776C49.5977 55.0394 49.4827 55.0703 49.357 55.0703ZM49.357 51.5675C49.1631 51.5675 48.9969 51.4993 48.8584 51.3629C48.7199 51.2244 48.6517 51.0582 48.6539 50.8643C48.6517 50.6726 48.7199 50.5085 48.8584 50.3722C48.9969 50.2337 49.1631 50.1644 49.357 50.1644C49.5445 50.1644 49.7075 50.2337 49.846 50.3722C49.9866 50.5085 50.058 50.6726 50.0601 50.8643C50.058 50.9922 50.0239 51.1094 49.9578 51.2159C49.8939 51.3224 49.8087 51.4077 49.7021 51.4716C49.5977 51.5355 49.4827 51.5675 49.357 51.5675Z" fill="black"/>
<path d="M20.0231 67L18.1758 60.4545H19.451L20.6303 65.2646H20.6911L21.9503 60.4545H23.1104L24.3729 65.2678H24.4304L25.6097 60.4545H26.8849L25.0376 67H23.8679L22.5575 62.4073H22.5064L21.1928 67H20.0231ZM29.2963 67.0959C28.8169 67.0959 28.4015 66.9904 28.0499 66.7795C27.6983 66.5685 27.4256 66.2734 27.2317 65.8942C27.04 65.5149 26.9441 65.0717 26.9441 64.5646C26.9441 64.0575 27.04 63.6133 27.2317 63.2319C27.4256 62.8505 27.6983 62.5543 28.0499 62.3434C28.4015 62.1325 28.8169 62.027 29.2963 62.027C29.7757 62.027 30.1912 62.1325 30.5428 62.3434C30.8944 62.5543 31.166 62.8505 31.3578 63.2319C31.5517 63.6133 31.6486 64.0575 31.6486 64.5646C31.6486 65.0717 31.5517 65.5149 31.3578 65.8942C31.166 66.2734 30.8944 66.5685 30.5428 66.7795C30.1912 66.9904 29.7757 67.0959 29.2963 67.0959ZM29.3027 66.169C29.5627 66.169 29.78 66.0977 29.9547 65.9549C30.1294 65.81 30.2594 65.6161 30.3446 65.3732C30.432 65.1303 30.4757 64.8597 30.4757 64.5614C30.4757 64.261 30.432 63.9893 30.3446 63.7464C30.2594 63.5014 30.1294 63.3065 29.9547 63.1616C29.78 63.0167 29.5627 62.9442 29.3027 62.9442C29.0364 62.9442 28.8148 63.0167 28.638 63.1616C28.4632 63.3065 28.3322 63.5014 28.2449 63.7464C28.1596 63.9893 28.117 64.261 28.117 64.5614C28.117 64.8597 28.1596 65.1303 28.2449 65.3732C28.3322 65.6161 28.4632 65.81 28.638 65.9549C28.8148 66.0977 29.0364 66.169 29.3027 66.169ZM32.6306 67V62.0909H33.7524V62.9091H33.8035C33.893 62.6257 34.0464 62.4073 34.2638 62.2539C34.4832 62.0984 34.7336 62.0206 35.0148 62.0206C35.0787 62.0206 35.1501 62.0238 35.229 62.0302C35.3099 62.0344 35.377 62.0419 35.4303 62.0526V63.1168C35.3813 63.0998 35.3035 63.0849 35.197 63.0721C35.0926 63.0572 34.9914 63.0497 34.8934 63.0497C34.6824 63.0497 34.4928 63.0955 34.3245 63.1871C34.1583 63.2766 34.0273 63.4013 33.9314 63.5611C33.8355 63.7209 33.7876 63.9052 33.7876 64.114V67H32.6306ZM37.3559 60.4545V67H36.199V60.4545H37.3559ZM40.3674 67.0863C39.9817 67.0863 39.6365 66.9872 39.3319 66.7891C39.0272 66.5909 38.7864 66.3033 38.6096 65.9261C38.4327 65.549 38.3443 65.0909 38.3443 64.5518C38.3443 64.0064 38.4338 63.5462 38.6127 63.1712C38.7939 62.794 39.0378 62.5096 39.3446 62.3178C39.6515 62.1239 39.9934 62.027 40.3706 62.027C40.6582 62.027 40.8947 62.076 41.0801 62.174C41.2654 62.2699 41.4125 62.386 41.5211 62.5224C41.6298 62.6566 41.714 62.7834 41.7736 62.9027H41.8216V60.4545H42.9817V67H41.8439V66.2266H41.7736C41.714 66.3459 41.6277 66.4727 41.5147 66.6069C41.4018 66.739 41.2527 66.8519 41.0673 66.9457C40.8819 67.0394 40.6486 67.0863 40.3674 67.0863ZM40.6902 66.1371C40.9352 66.1371 41.144 66.071 41.3166 65.9389C41.4892 65.8047 41.6202 65.6183 41.7097 65.3796C41.7992 65.141 41.8439 64.8629 41.8439 64.5455C41.8439 64.228 41.7992 63.9521 41.7097 63.7177C41.6223 63.4833 41.4924 63.3011 41.3198 63.1712C41.1493 63.0412 40.9395 62.9762 40.6902 62.9762C40.4324 62.9762 40.2172 63.0433 40.0446 63.1776C39.872 63.3118 39.742 63.4972 39.6547 63.7337C39.5673 63.9702 39.5236 64.2408 39.5236 64.5455C39.5236 64.8523 39.5673 65.1261 39.6547 65.3668C39.7441 65.6055 39.8752 65.794 40.0478 65.9325C40.2225 66.0689 40.4366 66.1371 40.6902 66.1371ZM45.2277 67L43.8406 62.0909H45.02L45.8829 65.5426H45.9276L46.8097 62.0909H47.9763L48.8584 65.5234H48.9063L49.7565 62.0909H50.939L49.5487 67H48.3438L47.4234 63.6825H47.3563L46.4358 67H45.2277ZM51.7468 67V62.0909H52.9038V67H51.7468ZM52.3285 61.3942C52.1452 61.3942 51.9876 61.3335 51.8555 61.212C51.7234 61.0884 51.6573 60.9403 51.6573 60.7678C51.6573 60.593 51.7234 60.445 51.8555 60.3235C51.9876 60.1999 52.1452 60.1381 52.3285 60.1381C52.5138 60.1381 52.6715 60.1999 52.8015 60.3235C52.9336 60.445 52.9996 60.593 52.9996 60.7678C52.9996 60.9403 52.9336 61.0884 52.8015 61.212C52.6715 61.3335 52.5138 61.3942 52.3285 61.3942ZM55.9152 67.0863C55.5296 67.0863 55.1844 66.9872 54.8797 66.7891C54.575 66.5909 54.3343 66.3033 54.1574 65.9261C53.9806 65.549 53.8921 65.0909 53.8921 64.5518C53.8921 64.0064 53.9816 63.5462 54.1606 63.1712C54.3417 62.794 54.5857 62.5096 54.8925 62.3178C55.1993 62.1239 55.5413 62.027 55.9184 62.027C56.2061 62.027 56.4426 62.076 56.6279 62.174C56.8133 62.2699 56.9603 62.386 57.069 62.5224C57.1776 62.6566 57.2618 62.7834 57.3215 62.9027H57.3694V60.4545H58.5296V67H57.3918V66.2266H57.3215C57.2618 66.3459 57.1755 66.4727 57.0626 66.6069C56.9497 66.739 56.8005 66.8519 56.6151 66.9457C56.4298 67.0394 56.1965 67.0863 55.9152 67.0863ZM56.238 66.1371C56.483 66.1371 56.6919 66.071 56.8644 65.9389C57.037 65.8047 57.1681 65.6183 57.2575 65.3796C57.347 65.141 57.3918 64.8629 57.3918 64.5455C57.3918 64.228 57.347 63.9521 57.2575 63.7177C57.1702 63.4833 57.0402 63.3011 56.8676 63.1712C56.6972 63.0412 56.4873 62.9762 56.238 62.9762C55.9802 62.9762 55.765 63.0433 55.5924 63.1776C55.4198 63.3118 55.2899 63.4972 55.2025 63.7337C55.1151 63.9702 55.0715 64.2408 55.0715 64.5455C55.0715 64.8523 55.1151 65.1261 55.2025 65.3668C55.292 65.6055 55.423 65.794 55.5956 65.9325C55.7703 66.0689 55.9845 66.1371 56.238 66.1371ZM61.9357 67.0959C61.4435 67.0959 61.0185 66.9936 60.6605 66.7891C60.3047 66.5824 60.0309 66.2905 59.8391 65.9134C59.6474 65.5341 59.5515 65.0877 59.5515 64.5742C59.5515 64.0692 59.6474 63.6261 59.8391 63.2447C60.033 62.8612 60.3036 62.5629 60.6509 62.3498C60.9982 62.1346 61.4062 62.027 61.875 62.027C62.1776 62.027 62.4631 62.076 62.7315 62.174C63.0021 62.2699 63.2408 62.419 63.4474 62.6214C63.6563 62.8239 63.8203 63.0817 63.9396 63.3949C64.0589 63.706 64.1186 64.0767 64.1186 64.5071V64.8619H60.0948V64.082H63.0096C63.0075 63.8604 62.9595 63.6634 62.8658 63.4908C62.772 63.3161 62.641 63.1786 62.4727 63.0785C62.3065 62.9783 62.1126 62.9283 61.891 62.9283C61.6545 62.9283 61.4467 62.9858 61.2678 63.1009C61.0888 63.2138 60.9492 63.3629 60.8491 63.5483C60.7511 63.7315 60.701 63.9329 60.6989 64.1523V64.8331C60.6989 65.1186 60.7511 65.3636 60.8555 65.5682C60.9599 65.7706 61.1058 65.9261 61.2933 66.0348C61.4808 66.1413 61.7003 66.1946 61.9517 66.1946C62.12 66.1946 62.2724 66.1712 62.4087 66.1243C62.5451 66.0753 62.6634 66.0039 62.7635 65.9102C62.8636 65.8164 62.9393 65.7003 62.9904 65.5618L64.0707 65.6832C64.0025 65.9687 63.8725 66.218 63.6808 66.4311C63.4911 66.642 63.2482 66.8061 62.9521 66.9233C62.6559 67.0384 62.3171 67.0959 61.9357 67.0959Z" fill="#344050"/>
<path d="M212.636 36.4545L214.078 38.8516H214.129L215.577 36.4545H216.929L214.912 39.7273L216.961 43H215.586L214.129 40.619H214.078L212.62 43H211.252L213.32 39.7273L211.278 36.4545H212.636ZM218.85 36.4545L220.292 38.8516H220.343L221.791 36.4545H223.142L221.126 39.7273L223.174 43H221.8L220.343 40.619H220.292L218.834 43H217.466L219.534 39.7273L217.492 36.4545H218.85ZM225.064 36.4545L226.506 38.8516H226.557L228.004 36.4545H229.356L227.34 39.7273L229.388 43H228.014L226.557 40.619H226.506L225.048 43H223.68L225.748 39.7273L223.706 36.4545H225.064ZM231.278 36.4545L232.719 38.8516H232.771L234.218 36.4545H235.57L233.554 39.7273L235.602 43H234.228L232.771 40.619H232.719L231.262 43H229.894L231.962 39.7273L229.92 36.4545H231.278ZM237.492 36.4545L238.933 38.8516H238.984L240.432 36.4545H241.784L239.767 39.7273L241.816 43H240.442L238.984 40.619H238.933L237.476 43H236.108L238.176 39.7273L236.134 36.4545H237.492ZM243.706 36.4545L245.147 38.8516H245.198L246.646 36.4545H247.998L245.981 39.7273L248.03 43H246.656L245.198 40.619H245.147L243.69 43H242.322L244.39 39.7273L242.347 36.4545H243.706ZM249.92 36.4545L251.361 38.8516H251.412L252.86 36.4545H254.212L252.195 39.7273L254.244 43H252.869L251.412 40.619H251.361L249.904 43H248.536L250.604 39.7273L248.561 36.4545H249.92ZM256.133 36.4545L257.575 38.8516H257.626L259.074 36.4545H260.426L258.409 39.7273L260.458 43H259.083L257.626 40.619H257.575L256.117 43H254.75L256.817 39.7273L254.775 36.4545H256.133ZM262.347 36.4545L263.789 38.8516H263.84L265.288 36.4545H266.64L264.623 39.7273L266.672 43H265.297L263.84 40.619H263.789L262.331 43H260.963L263.031 39.7273L260.989 36.4545H262.347ZM268.561 36.4545L270.003 38.8516H270.054L271.502 36.4545H272.853L270.837 39.7273L272.885 43H271.511L270.054 40.619H270.003L268.545 43H267.177L269.245 39.7273L267.203 36.4545H268.561Z" fill="#344050"/>
<path d="M211.358 25.4485V24.4545H216.58V25.4485H214.557V31H213.381V25.4485H211.358ZM217.026 31V26.0909H218.148V26.9091H218.199C218.289 26.6257 218.442 26.4073 218.659 26.2539C218.879 26.0984 219.129 26.0206 219.41 26.0206C219.474 26.0206 219.546 26.0238 219.624 26.0302C219.705 26.0344 219.773 26.0419 219.826 26.0526V27.1168C219.777 27.0998 219.699 27.0849 219.593 27.0721C219.488 27.0572 219.387 27.0497 219.289 27.0497C219.078 27.0497 218.888 27.0955 218.72 27.1871C218.554 27.2766 218.423 27.4013 218.327 27.5611C218.231 27.7209 218.183 27.9052 218.183 28.114V31H217.026ZM220.594 31V26.0909H221.751V31H220.594ZM221.176 25.3942C220.993 25.3942 220.835 25.3335 220.703 25.212C220.571 25.0884 220.505 24.9403 220.505 24.7678C220.505 24.593 220.571 24.445 220.703 24.3235C220.835 24.1999 220.993 24.1381 221.176 24.1381C221.362 24.1381 221.519 24.1999 221.649 24.3235C221.781 24.445 221.847 24.593 221.847 24.7678C221.847 24.9403 221.781 25.0884 221.649 25.212C221.519 25.3335 221.362 25.3942 221.176 25.3942ZM222.941 32.8409V26.0909H224.079V26.9027H224.146C224.206 26.7834 224.29 26.6566 224.399 26.5224C224.507 26.386 224.654 26.2699 224.84 26.174C225.025 26.076 225.261 26.027 225.549 26.027C225.928 26.027 226.27 26.1239 226.575 26.3178C226.882 26.5096 227.125 26.794 227.304 27.1712C227.485 27.5462 227.575 28.0064 227.575 28.5518C227.575 29.0909 227.487 29.549 227.31 29.9261C227.133 30.3033 226.892 30.5909 226.588 30.7891C226.283 30.9872 225.938 31.0863 225.552 31.0863C225.271 31.0863 225.038 31.0394 224.852 30.9457C224.667 30.8519 224.518 30.739 224.405 30.6069C224.294 30.4727 224.208 30.3459 224.146 30.2266H224.098V32.8409H222.941ZM224.076 28.5455C224.076 28.8629 224.12 29.141 224.21 29.3796C224.302 29.6183 224.433 29.8047 224.603 29.9389C224.776 30.071 224.984 30.1371 225.229 30.1371C225.485 30.1371 225.699 30.0689 225.872 29.9325C226.044 29.794 226.174 29.6055 226.262 29.3668C226.351 29.1261 226.396 28.8523 226.396 28.5455C226.396 28.2408 226.352 27.9702 226.265 27.7337C226.178 27.4972 226.048 27.3118 225.875 27.1776C225.703 27.0433 225.487 26.9762 225.229 26.9762C224.982 26.9762 224.772 27.0412 224.6 27.1712C224.427 27.3011 224.296 27.4833 224.207 27.7177C224.119 27.9521 224.076 28.228 224.076 28.5455ZM232.174 26.2539C232.145 25.9748 232.019 25.7575 231.797 25.6019C231.578 25.4464 231.292 25.3686 230.941 25.3686C230.694 25.3686 230.482 25.4059 230.305 25.4805C230.128 25.555 229.993 25.6562 229.899 25.7841C229.805 25.9119 229.757 26.0579 229.755 26.2219C229.755 26.3583 229.786 26.4766 229.848 26.5767C229.912 26.6768 229.998 26.7621 230.107 26.8324C230.215 26.9006 230.336 26.9581 230.468 27.005C230.6 27.0518 230.733 27.0913 230.867 27.1232L231.481 27.2766C231.728 27.3342 231.966 27.4119 232.194 27.5099C232.424 27.608 232.629 27.7315 232.81 27.8807C232.994 28.0298 233.139 28.2099 233.245 28.4208C233.352 28.6317 233.405 28.8789 233.405 29.1623C233.405 29.5458 233.307 29.8835 233.111 30.1754C232.915 30.4652 232.631 30.6921 232.261 30.8562C231.892 31.0181 231.446 31.0991 230.922 31.0991C230.412 31.0991 229.97 31.0202 229.595 30.8626C229.222 30.7049 228.93 30.4748 228.72 30.1722C228.511 29.8697 228.398 29.5011 228.381 29.0664H229.547C229.564 29.2944 229.635 29.484 229.758 29.6353C229.882 29.7866 230.043 29.8995 230.241 29.9741C230.441 30.0487 230.665 30.0859 230.912 30.0859C231.17 30.0859 231.396 30.0476 231.59 29.9709C231.786 29.892 231.939 29.7834 232.05 29.6449C232.161 29.5043 232.217 29.3402 232.219 29.1527C232.217 28.9822 232.167 28.8416 232.069 28.7308C231.971 28.6179 231.834 28.5241 231.657 28.4496C231.482 28.3729 231.277 28.3047 231.043 28.245L230.298 28.0533C229.759 27.9148 229.333 27.7049 229.02 27.4237C228.709 27.1403 228.553 26.7642 228.553 26.2955C228.553 25.9098 228.658 25.5721 228.867 25.2823C229.078 24.9925 229.364 24.7678 229.726 24.608C230.089 24.446 230.499 24.3651 230.957 24.3651C231.421 24.3651 231.828 24.446 232.178 24.608C232.529 24.7678 232.805 24.9904 233.005 25.2759C233.206 25.5593 233.309 25.8853 233.315 26.2539H232.174ZM235.824 31.0991C235.512 31.0991 235.232 31.0437 234.983 30.9329C234.736 30.82 234.54 30.6538 234.395 30.4343C234.252 30.2148 234.181 29.9442 234.181 29.6225C234.181 29.3455 234.232 29.1165 234.334 28.9354C234.436 28.7543 234.576 28.6094 234.753 28.5007C234.93 28.392 235.129 28.31 235.35 28.2546C235.574 28.1971 235.805 28.1555 236.044 28.13C236.332 28.1001 236.565 28.0735 236.744 28.0501C236.923 28.0245 237.053 27.9862 237.134 27.935C237.217 27.8817 237.259 27.7997 237.259 27.6889V27.6697C237.259 27.429 237.187 27.2425 237.044 27.1104C236.902 26.9783 236.696 26.9123 236.428 26.9123C236.144 26.9123 235.919 26.9741 235.753 27.0977C235.589 27.2212 235.478 27.3672 235.421 27.5355L234.341 27.3821C234.426 27.0838 234.566 26.8345 234.762 26.6342C234.958 26.4318 235.198 26.2805 235.482 26.1804C235.765 26.0781 236.078 26.027 236.421 26.027C236.658 26.027 236.893 26.0547 237.127 26.1101C237.362 26.1655 237.576 26.2571 237.77 26.3849C237.964 26.5107 238.119 26.6822 238.237 26.8995C238.356 27.1168 238.415 27.3885 238.415 27.7145V31H237.303V30.3256H237.265C237.195 30.462 237.096 30.5898 236.968 30.7092C236.842 30.8263 236.683 30.9212 236.491 30.9936C236.302 31.0639 236.079 31.0991 235.824 31.0991ZM236.124 30.2489C236.356 30.2489 236.558 30.2031 236.728 30.1115C236.898 30.0178 237.029 29.8942 237.121 29.7408C237.215 29.5874 237.262 29.4201 237.262 29.239V28.6605C237.225 28.6903 237.164 28.718 237.076 28.7436C236.991 28.7692 236.895 28.7915 236.789 28.8107C236.682 28.8299 236.577 28.8469 236.472 28.8619C236.368 28.8768 236.277 28.8896 236.201 28.9002C236.028 28.9237 235.874 28.962 235.737 29.0153C235.601 29.0685 235.493 29.1431 235.414 29.239C235.336 29.3327 235.296 29.4542 235.296 29.6033C235.296 29.8164 235.374 29.9773 235.529 30.0859C235.685 30.1946 235.883 30.2489 236.124 30.2489ZM242.065 26.0909V26.9858H239.163V26.0909H242.065ZM239.889 31V25.6275C239.889 25.2972 239.957 25.0224 240.093 24.8029C240.232 24.5835 240.417 24.4194 240.65 24.3107C240.882 24.2021 241.14 24.1477 241.423 24.1477C241.623 24.1477 241.801 24.1637 241.957 24.1957C242.112 24.2276 242.227 24.2564 242.302 24.282L242.072 25.1768C242.023 25.1619 241.961 25.147 241.886 25.1321C241.812 25.1151 241.729 25.1065 241.637 25.1065C241.422 25.1065 241.27 25.1587 241.18 25.2631C241.093 25.3654 241.049 25.5124 241.049 25.7042V31H239.889ZM244.96 31.0959C244.468 31.0959 244.043 30.9936 243.685 30.7891C243.329 30.5824 243.055 30.2905 242.864 29.9134C242.672 29.5341 242.576 29.0877 242.576 28.5742C242.576 28.0692 242.672 27.6261 242.864 27.2447C243.057 26.8612 243.328 26.5629 243.675 26.3498C244.023 26.1346 244.431 26.027 244.899 26.027C245.202 26.027 245.487 26.076 245.756 26.174C246.027 26.2699 246.265 26.419 246.472 26.6214C246.681 26.8239 246.845 27.0817 246.964 27.3949C247.083 27.706 247.143 28.0767 247.143 28.5071V28.8619H243.119V28.082H246.034C246.032 27.8604 245.984 27.6634 245.89 27.4908C245.796 27.3161 245.665 27.1786 245.497 27.0785C245.331 26.9783 245.137 26.9283 244.915 26.9283C244.679 26.9283 244.471 26.9858 244.292 27.1009C244.113 27.2138 243.974 27.3629 243.873 27.5483C243.775 27.7315 243.725 27.9329 243.723 28.1523V28.8331C243.723 29.1186 243.775 29.3636 243.88 29.5682C243.984 29.7706 244.13 29.9261 244.318 30.0348C244.505 30.1413 244.725 30.1946 244.976 30.1946C245.144 30.1946 245.297 30.1712 245.433 30.1243C245.57 30.0753 245.688 30.0039 245.788 29.9102C245.888 29.8164 245.964 29.7003 246.015 29.5618L247.095 29.6832C247.027 29.9687 246.897 30.218 246.705 30.4311C246.516 30.642 246.273 30.8061 245.976 30.9233C245.68 31.0384 245.342 31.0959 244.96 31.0959ZM251.591 24.4545V31H250.405V24.4545H251.591ZM255.093 31H252.875V24.4545H255.138C255.788 24.4545 256.346 24.5856 256.813 24.8477C257.281 25.1076 257.641 25.4815 257.893 25.9695C258.144 26.4574 258.27 27.0412 258.27 27.7209C258.27 28.4027 258.143 28.9886 257.89 29.4787C257.638 29.9687 257.275 30.3448 256.8 30.6069C256.327 30.869 255.758 31 255.093 31ZM254.061 29.9741H255.036C255.492 29.9741 255.872 29.891 256.177 29.7248C256.481 29.5565 256.71 29.3061 256.864 28.9737C257.017 28.6392 257.094 28.2216 257.094 27.7209C257.094 27.2202 257.017 26.8047 256.864 26.4744C256.71 26.142 256.483 25.8938 256.183 25.7298C255.885 25.5636 255.514 25.4805 255.071 25.4805H254.061V29.9741ZM260.058 30.2138C259.864 30.2138 259.698 30.1456 259.56 30.0092C259.421 29.8707 259.353 29.7045 259.355 29.5107C259.353 29.3189 259.421 29.1548 259.56 29.0185C259.698 28.8821 259.864 28.8139 260.058 28.8139C260.246 28.8139 260.409 28.8821 260.547 29.0185C260.688 29.1548 260.759 29.3189 260.761 29.5107C260.759 29.6406 260.725 29.7589 260.659 29.8654C260.595 29.9719 260.51 30.0572 260.403 30.1211C260.299 30.1829 260.184 30.2138 260.058 30.2138ZM260.058 26.9698C259.864 26.9698 259.698 26.9016 259.56 26.7653C259.421 26.6268 259.353 26.4606 259.355 26.2667C259.353 26.0749 259.421 25.9109 259.56 25.7745C259.698 25.636 259.864 25.5668 260.058 25.5668C260.246 25.5668 260.409 25.636 260.547 25.7745C260.688 25.9109 260.759 26.0749 260.761 26.2667C260.759 26.3945 260.725 26.5117 260.659 26.6183C260.595 26.7248 260.51 26.81 260.403 26.8739C260.299 26.9379 260.184 26.9698 260.058 26.9698Z" fill="black"/>
<path d="M211.636 84.4545L213.078 86.8516H213.129L214.577 84.4545H215.929L213.912 87.7273L215.961 91H214.586L213.129 88.619H213.078L211.62 91H210.252L212.32 87.7273L210.278 84.4545H211.636ZM217.85 84.4545L219.292 86.8516H219.343L220.791 84.4545H222.142L220.126 87.7273L222.174 91H220.8L219.343 88.619H219.292L217.834 91H216.466L218.534 87.7273L216.492 84.4545H217.85ZM224.064 84.4545L225.506 86.8516H225.557L227.004 84.4545H228.356L226.34 87.7273L228.388 91H227.014L225.557 88.619H225.506L224.048 91H222.68L224.748 87.7273L222.706 84.4545H224.064ZM230.278 84.4545L231.719 86.8516H231.771L233.218 84.4545H234.57L232.554 87.7273L234.602 91H233.228L231.771 88.619H231.719L230.262 91H228.894L230.962 87.7273L228.92 84.4545H230.278ZM236.492 84.4545L237.933 86.8516H237.984L239.432 84.4545H240.784L238.767 87.7273L240.816 91H239.442L237.984 88.619H237.933L236.476 91H235.108L237.176 87.7273L235.134 84.4545H236.492Z" fill="#344050"/>
<path d="M210.358 73.4485V72.4545H215.58V73.4485H213.557V79H212.381V73.4485H210.358ZM216.026 79V74.0909H217.148V74.9091H217.199C217.289 74.6257 217.442 74.4073 217.659 74.2539C217.879 74.0984 218.129 74.0206 218.41 74.0206C218.474 74.0206 218.546 74.0238 218.624 74.0302C218.705 74.0344 218.773 74.0419 218.826 74.0526V75.1168C218.777 75.0998 218.699 75.0849 218.593 75.0721C218.488 75.0572 218.387 75.0497 218.289 75.0497C218.078 75.0497 217.888 75.0955 217.72 75.1871C217.554 75.2766 217.423 75.4013 217.327 75.5611C217.231 75.7209 217.183 75.9052 217.183 76.114V79H216.026ZM219.594 79V74.0909H220.751V79H219.594ZM220.176 73.3942C219.993 73.3942 219.835 73.3335 219.703 73.212C219.571 73.0884 219.505 72.9403 219.505 72.7678C219.505 72.593 219.571 72.445 219.703 72.3235C219.835 72.1999 219.993 72.1381 220.176 72.1381C220.362 72.1381 220.519 72.1999 220.649 72.3235C220.781 72.445 220.847 72.593 220.847 72.7678C220.847 72.9403 220.781 73.0884 220.649 73.212C220.519 73.3335 220.362 73.3942 220.176 73.3942ZM221.941 80.8409V74.0909H223.079V74.9027H223.146C223.206 74.7834 223.29 74.6566 223.399 74.5224C223.507 74.386 223.654 74.2699 223.84 74.174C224.025 74.076 224.261 74.027 224.549 74.027C224.928 74.027 225.27 74.1239 225.575 74.3178C225.882 74.5096 226.125 74.794 226.304 75.1712C226.485 75.5462 226.575 76.0064 226.575 76.5518C226.575 77.0909 226.487 77.549 226.31 77.9261C226.133 78.3033 225.892 78.5909 225.588 78.7891C225.283 78.9872 224.938 79.0863 224.552 79.0863C224.271 79.0863 224.038 79.0394 223.852 78.9457C223.667 78.8519 223.518 78.739 223.405 78.6069C223.294 78.4727 223.208 78.3459 223.146 78.2266H223.098V80.8409H221.941ZM223.076 76.5455C223.076 76.8629 223.12 77.141 223.21 77.3796C223.302 77.6183 223.433 77.8047 223.603 77.9389C223.776 78.071 223.984 78.1371 224.229 78.1371C224.485 78.1371 224.699 78.0689 224.872 77.9325C225.044 77.794 225.174 77.6055 225.262 77.3668C225.351 77.1261 225.396 76.8523 225.396 76.5455C225.396 76.2408 225.352 75.9702 225.265 75.7337C225.178 75.4972 225.048 75.3118 224.875 75.1776C224.703 75.0433 224.487 74.9762 224.229 74.9762C223.982 74.9762 223.772 75.0412 223.6 75.1712C223.427 75.3011 223.296 75.4833 223.207 75.7177C223.119 75.9521 223.076 76.228 223.076 76.5455ZM231.174 74.2539C231.145 73.9748 231.019 73.7575 230.797 73.6019C230.578 73.4464 230.292 73.3686 229.941 73.3686C229.694 73.3686 229.482 73.4059 229.305 73.4805C229.128 73.555 228.993 73.6562 228.899 73.7841C228.805 73.9119 228.757 74.0579 228.755 74.2219C228.755 74.3583 228.786 74.4766 228.848 74.5767C228.912 74.6768 228.998 74.7621 229.107 74.8324C229.215 74.9006 229.336 74.9581 229.468 75.005C229.6 75.0518 229.733 75.0913 229.867 75.1232L230.481 75.2766C230.728 75.3342 230.966 75.4119 231.194 75.5099C231.424 75.608 231.629 75.7315 231.81 75.8807C231.994 76.0298 232.139 76.2099 232.245 76.4208C232.352 76.6317 232.405 76.8789 232.405 77.1623C232.405 77.5458 232.307 77.8835 232.111 78.1754C231.915 78.4652 231.631 78.6921 231.261 78.8562C230.892 79.0181 230.446 79.0991 229.922 79.0991C229.412 79.0991 228.97 79.0202 228.595 78.8626C228.222 78.7049 227.93 78.4748 227.72 78.1722C227.511 77.8697 227.398 77.5011 227.381 77.0664H228.547C228.564 77.2944 228.635 77.484 228.758 77.6353C228.882 77.7866 229.043 77.8995 229.241 77.9741C229.441 78.0487 229.665 78.0859 229.912 78.0859C230.17 78.0859 230.396 78.0476 230.59 77.9709C230.786 77.892 230.939 77.7834 231.05 77.6449C231.161 77.5043 231.217 77.3402 231.219 77.1527C231.217 76.9822 231.167 76.8416 231.069 76.7308C230.971 76.6179 230.834 76.5241 230.657 76.4496C230.482 76.3729 230.277 76.3047 230.043 76.245L229.298 76.0533C228.759 75.9148 228.333 75.7049 228.02 75.4237C227.709 75.1403 227.553 74.7642 227.553 74.2955C227.553 73.9098 227.658 73.5721 227.867 73.2823C228.078 72.9925 228.364 72.7678 228.726 72.608C229.089 72.446 229.499 72.3651 229.957 72.3651C230.421 72.3651 230.828 72.446 231.178 72.608C231.529 72.7678 231.805 72.9904 232.005 73.2759C232.206 73.5593 232.309 73.8853 232.315 74.2539H231.174ZM234.824 79.0991C234.512 79.0991 234.232 79.0437 233.983 78.9329C233.736 78.82 233.54 78.6538 233.395 78.4343C233.252 78.2148 233.181 77.9442 233.181 77.6225C233.181 77.3455 233.232 77.1165 233.334 76.9354C233.436 76.7543 233.576 76.6094 233.753 76.5007C233.93 76.392 234.129 76.31 234.35 76.2546C234.574 76.1971 234.805 76.1555 235.044 76.13C235.332 76.1001 235.565 76.0735 235.744 76.0501C235.923 76.0245 236.053 75.9862 236.134 75.935C236.217 75.8817 236.259 75.7997 236.259 75.6889V75.6697C236.259 75.429 236.187 75.2425 236.044 75.1104C235.902 74.9783 235.696 74.9123 235.428 74.9123C235.144 74.9123 234.919 74.9741 234.753 75.0977C234.589 75.2212 234.478 75.3672 234.421 75.5355L233.341 75.3821C233.426 75.0838 233.566 74.8345 233.762 74.6342C233.958 74.4318 234.198 74.2805 234.482 74.1804C234.765 74.0781 235.078 74.027 235.421 74.027C235.658 74.027 235.893 74.0547 236.127 74.1101C236.362 74.1655 236.576 74.2571 236.77 74.3849C236.964 74.5107 237.119 74.6822 237.237 74.8995C237.356 75.1168 237.415 75.3885 237.415 75.7145V79H236.303V78.3256H236.265C236.195 78.462 236.096 78.5898 235.968 78.7092C235.842 78.8263 235.683 78.9212 235.491 78.9936C235.302 79.0639 235.079 79.0991 234.824 79.0991ZM235.124 78.2489C235.356 78.2489 235.558 78.2031 235.728 78.1115C235.898 78.0178 236.029 77.8942 236.121 77.7408C236.215 77.5874 236.262 77.4201 236.262 77.239V76.6605C236.225 76.6903 236.164 76.718 236.076 76.7436C235.991 76.7692 235.895 76.7915 235.789 76.8107C235.682 76.8299 235.577 76.8469 235.472 76.8619C235.368 76.8768 235.277 76.8896 235.201 76.9002C235.028 76.9237 234.874 76.962 234.737 77.0153C234.601 77.0685 234.493 77.1431 234.414 77.239C234.336 77.3327 234.296 77.4542 234.296 77.6033C234.296 77.8164 234.374 77.9773 234.529 78.0859C234.685 78.1946 234.883 78.2489 235.124 78.2489ZM241.065 74.0909V74.9858H238.163V74.0909H241.065ZM238.889 79V73.6275C238.889 73.2972 238.957 73.0224 239.093 72.8029C239.232 72.5835 239.417 72.4194 239.65 72.3107C239.882 72.2021 240.14 72.1477 240.423 72.1477C240.623 72.1477 240.801 72.1637 240.957 72.1957C241.112 72.2276 241.227 72.2564 241.302 72.282L241.072 73.1768C241.023 73.1619 240.961 73.147 240.886 73.1321C240.812 73.1151 240.729 73.1065 240.637 73.1065C240.422 73.1065 240.27 73.1587 240.18 73.2631C240.093 73.3654 240.049 73.5124 240.049 73.7042V79H238.889ZM243.96 79.0959C243.468 79.0959 243.043 78.9936 242.685 78.7891C242.329 78.5824 242.055 78.2905 241.864 77.9134C241.672 77.5341 241.576 77.0877 241.576 76.5742C241.576 76.0692 241.672 75.6261 241.864 75.2447C242.057 74.8612 242.328 74.5629 242.675 74.3498C243.023 74.1346 243.431 74.027 243.899 74.027C244.202 74.027 244.487 74.076 244.756 74.174C245.027 74.2699 245.265 74.419 245.472 74.6214C245.681 74.8239 245.845 75.0817 245.964 75.3949C246.083 75.706 246.143 76.0767 246.143 76.5071V76.8619H242.119V76.082H245.034C245.032 75.8604 244.984 75.6634 244.89 75.4908C244.796 75.3161 244.665 75.1786 244.497 75.0785C244.331 74.9783 244.137 74.9283 243.915 74.9283C243.679 74.9283 243.471 74.9858 243.292 75.1009C243.113 75.2138 242.974 75.3629 242.873 75.5483C242.775 75.7315 242.725 75.9329 242.723 76.1523V76.8331C242.723 77.1186 242.775 77.3636 242.88 77.5682C242.984 77.7706 243.13 77.9261 243.318 78.0348C243.505 78.1413 243.725 78.1946 243.976 78.1946C244.144 78.1946 244.297 78.1712 244.433 78.1243C244.57 78.0753 244.688 78.0039 244.788 77.9102C244.888 77.8164 244.964 77.7003 245.015 77.5618L246.095 77.6832C246.027 77.9687 245.897 78.218 245.705 78.4311C245.516 78.642 245.273 78.8061 244.976 78.9233C244.68 79.0384 244.342 79.0959 243.96 79.0959ZM249.118 73.4485V72.4545H254.34V73.4485H252.317V79H251.141V73.4485H249.118ZM255.296 79V74.0909H256.453V79H255.296ZM255.877 73.3942C255.694 73.3942 255.536 73.3335 255.404 73.212C255.272 73.0884 255.206 72.9403 255.206 72.7678C255.206 72.593 255.272 72.445 255.404 72.3235C255.536 72.1999 255.694 72.1381 255.877 72.1381C256.063 72.1381 256.22 72.1999 256.35 72.3235C256.482 72.445 256.548 72.593 256.548 72.7678C256.548 72.9403 256.482 73.0884 256.35 73.212C256.22 73.3335 256.063 73.3942 255.877 73.3942ZM259.816 79.0959C259.323 79.0959 258.898 78.9936 258.54 78.7891C258.185 78.5824 257.911 78.2905 257.719 77.9134C257.527 77.5341 257.431 77.0877 257.431 76.5742C257.431 76.0692 257.527 75.6261 257.719 75.2447C257.913 74.8612 258.184 74.5629 258.531 74.3498C258.878 74.1346 259.286 74.027 259.755 74.027C260.057 74.027 260.343 74.076 260.611 74.174C260.882 74.2699 261.121 74.419 261.327 74.6214C261.536 74.8239 261.7 75.0817 261.82 75.3949C261.939 75.706 261.998 76.0767 261.998 76.5071V76.8619H257.975V76.082H260.889C260.887 75.8604 260.839 75.6634 260.746 75.4908C260.652 75.3161 260.521 75.1786 260.353 75.0785C260.186 74.9783 259.992 74.9283 259.771 74.9283C259.534 74.9283 259.327 74.9858 259.148 75.1009C258.969 75.2138 258.829 75.3629 258.729 75.5483C258.631 75.7315 258.581 75.9329 258.579 76.1523V76.8331C258.579 77.1186 258.631 77.3636 258.735 77.5682C258.84 77.7706 258.986 77.9261 259.173 78.0348C259.361 78.1413 259.58 78.1946 259.832 78.1946C260 78.1946 260.152 78.1712 260.289 78.1243C260.425 78.0753 260.543 78.0039 260.643 77.9102C260.744 77.8164 260.819 77.7003 260.87 77.5618L261.951 77.6832C261.882 77.9687 261.752 78.218 261.561 78.4311C261.371 78.642 261.128 78.8061 260.832 78.9233C260.536 79.0384 260.197 79.0959 259.816 79.0959ZM262.977 79V74.0909H264.099V74.9091H264.15C264.24 74.6257 264.393 74.4073 264.61 74.2539C264.83 74.0984 265.08 74.0206 265.362 74.0206C265.425 74.0206 265.497 74.0238 265.576 74.0302C265.657 74.0344 265.724 74.0419 265.777 74.0526V75.1168C265.728 75.0998 265.65 75.0849 265.544 75.0721C265.439 75.0572 265.338 75.0497 265.24 75.0497C265.029 75.0497 264.839 75.0955 264.671 75.1871C264.505 75.2766 264.374 75.4013 264.278 75.5611C264.182 75.7209 264.134 75.9052 264.134 76.114V79H262.977ZM267.258 79.0703C267.064 79.0703 266.898 79.0021 266.76 78.8658C266.621 78.7294 266.553 78.5632 266.555 78.3672C266.553 78.1754 266.621 78.0114 266.76 77.875C266.898 77.7386 267.064 77.6705 267.258 77.6705C267.446 77.6705 267.609 77.7386 267.747 77.875C267.888 78.0114 267.959 78.1754 267.961 78.3672C267.959 78.4972 267.925 78.6154 267.859 78.7219C267.795 78.8285 267.71 78.9137 267.604 78.9776C267.499 79.0394 267.384 79.0703 267.258 79.0703ZM267.258 75.5675C267.064 75.5675 266.898 75.4993 266.76 75.3629C266.621 75.2244 266.553 75.0582 266.555 74.8643C266.553 74.6726 266.621 74.5085 266.76 74.3722C266.898 74.2337 267.064 74.1644 267.258 74.1644C267.446 74.1644 267.609 74.2337 267.747 74.3722C267.888 74.5085 267.959 74.6726 267.961 74.8643C267.959 74.9922 267.925 75.1094 267.859 75.2159C267.795 75.3224 267.71 75.4077 267.604 75.4716C267.499 75.5355 267.384 75.5675 267.258 75.5675Z" fill="black"/>
<defs>
<filter id="filter0_d_1_509" x="0" y="0" width="304" height="128.908" filterUnits="userSpaceOnUse" color-interpolation-filters="sRGB">
<feFlood flood-opacity="0" result="BackgroundImageFix"/>
<feColorMatrix in="SourceAlpha" type="matrix" values="0 0 0 0 0 0 0 0 0 0 0 0 0 0 0 0 0 0 127 0" result="hardAlpha"/>
<feOffset dy="4"/>
<feGaussianBlur stdDeviation="2"/>
<feComposite in2="hardAlpha" operator="out"/>
<feColorMatrix type="matrix" values="0 0 0 0 0 0 0 0 0 0 0 0 0 0 0 0 0 0 0.25 0"/>
<feBlend mode="normal" in2="BackgroundImageFix" result="effect1_dropShadow_1_509"/>
<feBlend mode="normal" in="SourceGraphic" in2="effect1_dropShadow_1_509" result="shape"/>
</filter>
<filter id="filter1_d_1_509" x="188.036" y="0" width="115.964" height="128.908" filterUnits="userSpaceOnUse" color-interpolation-filters="sRGB">
<feFlood flood-opacity="0" result="BackgroundImageFix"/>
<feColorMatrix in="SourceAlpha" type="matrix" values="0 0 0 0 0 0 0 0 0 0 0 0 0 0 0 0 0 0 127 0" result="hardAlpha"/>
<feOffset dy="4"/>
<feGaussianBlur stdDeviation="2"/>
<feComposite in2="hardAlpha" operator="out"/>
<feColorMatrix type="matrix" values="0 0 0 0 0 0 0 0 0 0 0 0 0 0 0 0 0 0 0.25 0"/>
<feBlend mode="normal" in2="BackgroundImageFix" result="effect1_dropShadow_1_509"/>
<feBlend mode="normal" in="SourceGraphic" in2="effect1_dropShadow_1_509" result="shape"/>
</filter>
<linearGradient id="paint0_linear_1_509" x1="3.84452" y1="57.1642" x2="300.164" y2="57.9545" gradientUnits="userSpaceOnUse">
<stop stop-color="#FFB951"/>
<stop offset="0.46" stop-color="#FFFBBC"/>
<stop offset="0.66" stop-color="#E6C078"/>
<stop offset="1" stop-color="#B68A45"/>
</linearGradient>
<linearGradient id="paint1_linear_1_509" x1="172.192" y1="60" x2="299.809" y2="55.9709" gradientUnits="userSpaceOnUse">
<stop stop-color="#FFB951"/>
<stop offset="0.197144" stop-color="#FFFBBC"/>
<stop offset="0.66" stop-color="#E6C078"/>
<stop offset="1" stop-color="#B68A45"/>
</linearGradient>
</defs>
</svg>
