<svg width="8" height="8" viewBox="0 0 8 8" fill="none" xmlns="http://www.w3.org/2000/svg">
<path d="M1.375 2.95C1.20931 2.95 1.075 3.08431 1.075 3.25C1.075 3.41569 1.20931 3.55 1.375 3.55V2.95ZM6.625 3.55C6.79069 3.55 6.925 3.41569 6.925 3.25C6.925 3.08431 6.79069 2.95 6.625 2.95V3.55ZM1.40649 4.63747C1.24081 4.63747 1.10649 4.77178 1.10649 4.93747C1.10649 5.10316 1.24081 5.23747 1.40649 5.23747V4.63747ZM6.65649 5.23747C6.82218 5.23747 6.95649 5.10316 6.95649 4.93747C6.95649 4.77178 6.82218 4.63747 6.65649 4.63747V5.23747ZM6.7 4C6.7 5.49117 5.49117 6.7 4 6.7V7.3C5.82254 7.3 7.3 5.82254 7.3 4H6.7ZM4 6.7C2.50883 6.7 1.3 5.49117 1.3 4H0.7C0.7 5.82254 2.17746 7.3 4 7.3V6.7ZM1.3 4C1.3 2.50883 2.50883 1.3 4 1.3V0.7C2.17746 0.7 0.7 2.17746 0.7 4H1.3ZM4 1.3C5.49117 1.3 6.7 2.50883 6.7 4H7.3C7.3 2.17746 5.82254 0.7 4 0.7V1.3ZM4 6.7C3.91804 6.7 3.81631 6.6633 3.69763 6.54856C3.57751 6.43243 3.45563 6.2499 3.34677 6.00107C3.12944 5.50431 2.9875 4.79706 2.9875 4H2.3875C2.3875 4.8598 2.53938 5.65254 2.79708 6.24157C2.92573 6.53563 3.08667 6.79244 3.2806 6.97993C3.47597 7.16881 3.71952 7.3 4 7.3V6.7ZM2.9875 4C2.9875 3.20294 3.12944 2.49569 3.34677 1.99893C3.45563 1.7501 3.57751 1.56757 3.69763 1.45144C3.81631 1.3367 3.91804 1.3 4 1.3V0.7C3.71952 0.7 3.47597 0.831189 3.2806 1.02007C3.08667 1.20756 2.92573 1.46437 2.79708 1.75843C2.53938 2.34746 2.3875 3.1402 2.3875 4H2.9875ZM4 7.3C4.28048 7.3 4.52403 7.16881 4.7194 6.97993C4.91333 6.79244 5.07427 6.53563 5.20292 6.24157C5.46062 5.65254 5.6125 4.8598 5.6125 4H5.0125C5.0125 4.79706 4.87056 5.50431 4.65323 6.00107C4.54437 6.2499 4.42249 6.43243 4.30237 6.54856C4.18369 6.6633 4.08196 6.7 4 6.7V7.3ZM5.6125 4C5.6125 3.1402 5.46062 2.34746 5.20292 1.75843C5.07427 1.46437 4.91333 1.20756 4.7194 1.02007C4.52403 0.831189 4.28048 0.7 4 0.7V1.3C4.08196 1.3 4.18369 1.3367 4.30237 1.45144C4.42249 1.56757 4.54437 1.7501 4.65323 1.99893C4.87056 2.49569 5.0125 3.20294 5.0125 4H5.6125ZM1.375 3.55H6.625V2.95H1.375V3.55ZM1.40649 5.23747H6.65649V4.63747H1.40649V5.23747Z" fill="white"/>
</svg>
